<?xml version="1.0" encoding="UTF-8"?>
<svg xmlns="http://www.w3.org/2000/svg" xmlns:xlink="http://www.w3.org/1999/xlink" width="412.83pt" height="201.78pt" viewBox="0 0 412.83 201.78">
<defs>
<g>
<g id="glyph-0-0">
<path d="M 2.515625 -2.5 L 2.484375 -3.578125 L 2.390625 -3.578125 L 2.375 -3.5625 C 2.296875 -3.515625 2.296875 -3.5 2.265625 -3.5 C 2.21875 -3.5 2.140625 -3.515625 2.046875 -3.5625 C 1.875 -3.625 1.703125 -3.65625 1.484375 -3.65625 C 0.859375 -3.65625 0.40625 -3.25 0.40625 -2.671875 C 0.40625 -2.234375 0.65625 -1.90625 1.34375 -1.53125 L 1.796875 -1.265625 C 2.078125 -1.109375 2.21875 -0.921875 2.21875 -0.671875 C 2.21875 -0.3125 1.953125 -0.09375 1.546875 -0.09375 C 1.28125 -0.09375 1.03125 -0.203125 0.890625 -0.375 C 0.71875 -0.578125 0.640625 -0.75 0.546875 -1.21875 L 0.421875 -1.21875 L 0.421875 0.03125 L 0.515625 0.03125 C 0.578125 -0.046875 0.609375 -0.0625 0.703125 -0.0625 C 0.765625 -0.0625 0.890625 -0.046875 1.0625 0 C 1.296875 0.046875 1.5 0.078125 1.65625 0.078125 C 2.265625 0.078125 2.765625 -0.375 2.765625 -0.9375 C 2.765625 -1.34375 2.578125 -1.609375 2.109375 -1.890625 L 1.25 -2.40625 C 1.015625 -2.53125 0.90625 -2.71875 0.90625 -2.9375 C 0.90625 -3.265625 1.140625 -3.484375 1.515625 -3.484375 C 1.96875 -3.484375 2.203125 -3.21875 2.390625 -2.5 Z M 2.515625 -2.5 "/>
</g>
<g id="glyph-0-1">
<path d="M 1.25 -2.734375 C 1.578125 -3.09375 1.828125 -3.234375 2.140625 -3.234375 C 2.53125 -3.234375 2.734375 -2.953125 2.734375 -2.390625 L 2.734375 -0.8125 C 2.734375 -0.265625 2.65625 -0.171875 2.1875 -0.125 L 2.1875 0 L 3.875 0 L 3.875 -0.125 C 3.453125 -0.203125 3.40625 -0.265625 3.40625 -0.8125 L 3.40625 -2.40625 C 3.40625 -3.234375 3.0625 -3.671875 2.421875 -3.671875 C 1.953125 -3.671875 1.625 -3.46875 1.25 -3 L 1.25 -5.421875 L 1.21875 -5.4375 C 0.9375 -5.34375 0.734375 -5.28125 0.296875 -5.15625 L 0.078125 -5.09375 L 0.078125 -4.96875 C 0.109375 -4.96875 0.140625 -4.96875 0.171875 -4.96875 C 0.515625 -4.96875 0.578125 -4.90625 0.578125 -4.5625 L 0.578125 -0.8125 C 0.578125 -0.25 0.53125 -0.1875 0.078125 -0.125 L 0.078125 0 L 1.796875 0 L 1.796875 -0.125 C 1.328125 -0.171875 1.25 -0.265625 1.25 -0.8125 Z M 1.25 -2.734375 "/>
</g>
<g id="glyph-0-2">
<path d="M 3.515625 -0.53125 C 3.390625 -0.421875 3.296875 -0.375 3.171875 -0.375 C 2.984375 -0.375 2.9375 -0.484375 2.9375 -0.84375 L 2.9375 -2.390625 C 2.9375 -2.8125 2.890625 -3.03125 2.765625 -3.234375 C 2.59375 -3.515625 2.25 -3.671875 1.78125 -3.671875 C 1.03125 -3.671875 0.453125 -3.28125 0.453125 -2.765625 C 0.453125 -2.59375 0.609375 -2.4375 0.78125 -2.4375 C 0.984375 -2.4375 1.140625 -2.59375 1.140625 -2.765625 C 1.140625 -2.796875 1.140625 -2.84375 1.125 -2.890625 C 1.109375 -2.96875 1.109375 -3.03125 1.109375 -3.078125 C 1.109375 -3.296875 1.359375 -3.46875 1.6875 -3.46875 C 2.078125 -3.46875 2.28125 -3.25 2.28125 -2.8125 L 2.28125 -2.328125 C 1.0625 -1.828125 0.921875 -1.765625 0.578125 -1.46875 C 0.40625 -1.3125 0.296875 -1.03125 0.296875 -0.765625 C 0.296875 -0.265625 0.640625 0.078125 1.125 0.078125 C 1.484375 0.078125 1.8125 -0.09375 2.296875 -0.5 C 2.328125 -0.09375 2.484375 0.078125 2.8125 0.078125 C 3.078125 0.078125 3.25 -0.015625 3.515625 -0.3125 Z M 2.28125 -0.984375 C 2.28125 -0.734375 2.25 -0.65625 2.078125 -0.5625 C 1.890625 -0.453125 1.671875 -0.375 1.5 -0.375 C 1.21875 -0.375 1 -0.65625 1 -1 L 1 -1.03125 C 1 -1.5 1.328125 -1.78125 2.28125 -2.140625 Z M 2.28125 -0.984375 "/>
</g>
<g id="glyph-0-3">
<path d="M 0.0625 -3.109375 C 0.171875 -3.125 0.234375 -3.140625 0.328125 -3.140625 C 0.53125 -3.140625 0.609375 -3.015625 0.609375 -2.65625 L 0.609375 -0.671875 C 0.609375 -0.265625 0.546875 -0.21875 0.046875 -0.125 L 0.046875 0 L 1.953125 0 L 1.953125 -0.125 C 1.40625 -0.140625 1.28125 -0.265625 1.28125 -0.71875 L 1.28125 -2.515625 C 1.28125 -2.765625 1.625 -3.15625 1.828125 -3.15625 C 1.875 -3.15625 1.953125 -3.125 2.046875 -3.046875 C 2.171875 -2.9375 2.25 -2.890625 2.359375 -2.890625 C 2.546875 -2.890625 2.671875 -3.015625 2.671875 -3.25 C 2.671875 -3.5 2.5 -3.671875 2.234375 -3.671875 C 1.890625 -3.671875 1.671875 -3.484375 1.28125 -2.921875 L 1.28125 -3.65625 L 1.234375 -3.671875 C 0.8125 -3.484375 0.53125 -3.390625 0.0625 -3.234375 Z M 0.0625 -3.109375 "/>
</g>
<g id="glyph-0-4">
<path d="M 3.25 -1.3125 C 2.875 -0.703125 2.53125 -0.46875 2.015625 -0.46875 C 1.5625 -0.46875 1.21875 -0.703125 0.984375 -1.15625 C 0.84375 -1.453125 0.78125 -1.71875 0.765625 -2.203125 L 3.234375 -2.203125 C 3.15625 -2.71875 3.078125 -2.953125 2.890625 -3.21875 C 2.640625 -3.5 2.28125 -3.671875 1.859375 -3.671875 C 1.46875 -3.671875 1.09375 -3.515625 0.78125 -3.25 C 0.421875 -2.921875 0.203125 -2.359375 0.203125 -1.703125 C 0.203125 -0.609375 0.765625 0.078125 1.6875 0.078125 C 2.453125 0.078125 3.046875 -0.390625 3.375 -1.25 Z M 0.78125 -2.46875 C 0.875 -3.078125 1.140625 -3.375 1.640625 -3.375 C 2.125 -3.375 2.3125 -3.15625 2.421875 -2.46875 Z M 0.78125 -2.46875 "/>
</g>
<g id="glyph-0-5">
<path d="M 2.734375 0.078125 L 3.90625 -0.328125 L 3.90625 -0.46875 C 3.765625 -0.453125 3.75 -0.453125 3.734375 -0.453125 C 3.4375 -0.453125 3.375 -0.546875 3.375 -0.90625 L 3.375 -5.421875 L 3.34375 -5.4375 C 2.953125 -5.3125 2.671875 -5.234375 2.171875 -5.09375 L 2.171875 -4.96875 C 2.234375 -4.96875 2.28125 -4.96875 2.34375 -4.96875 C 2.640625 -4.96875 2.703125 -4.890625 2.703125 -4.5625 L 2.703125 -3.328125 C 2.40625 -3.578125 2.1875 -3.671875 1.875 -3.671875 C 0.953125 -3.671875 0.21875 -2.765625 0.21875 -1.640625 C 0.21875 -0.609375 0.8125 0.078125 1.6875 0.078125 C 2.140625 0.078125 2.4375 -0.078125 2.703125 -0.453125 L 2.703125 0.0625 Z M 2.703125 -0.8125 C 2.703125 -0.75 2.65625 -0.65625 2.578125 -0.578125 C 2.4375 -0.421875 2.234375 -0.328125 2 -0.328125 C 1.34375 -0.328125 0.90625 -0.96875 0.90625 -1.953125 C 0.90625 -2.859375 1.296875 -3.4375 1.890625 -3.4375 C 2.3125 -3.4375 2.703125 -3.0625 2.703125 -2.640625 Z M 2.703125 -0.8125 "/>
</g>
<g id="glyph-0-6">
<path d="M 3.171875 -1.25 C 2.78125 -0.6875 2.5 -0.5 2.046875 -0.5 C 1.328125 -0.5 0.8125 -1.125 0.8125 -2.046875 C 0.8125 -2.875 1.25 -3.4375 1.890625 -3.4375 C 2.1875 -3.4375 2.28125 -3.34375 2.359375 -3.046875 L 2.421875 -2.875 C 2.484375 -2.65625 2.625 -2.515625 2.78125 -2.515625 C 3 -2.515625 3.171875 -2.65625 3.171875 -2.84375 C 3.171875 -3.296875 2.609375 -3.671875 1.9375 -3.671875 C 1.546875 -3.671875 1.140625 -3.5 0.828125 -3.21875 C 0.421875 -2.875 0.203125 -2.328125 0.203125 -1.703125 C 0.203125 -0.65625 0.828125 0.078125 1.71875 0.078125 C 2.078125 0.078125 2.390625 -0.046875 2.671875 -0.296875 C 2.890625 -0.484375 3.046875 -0.703125 3.28125 -1.171875 Z M 3.171875 -1.25 "/>
</g>
<g id="glyph-0-7">
<path d="M 0.15625 -4.96875 L 0.203125 -4.96875 C 0.28125 -4.96875 0.375 -4.984375 0.453125 -4.984375 C 0.703125 -4.984375 0.78125 -4.875 0.78125 -4.5 L 0.78125 -0.6875 C 0.78125 -0.265625 0.671875 -0.15625 0.171875 -0.125 L 0.171875 0 L 2.046875 0 L 2.046875 -0.125 C 1.546875 -0.15625 1.453125 -0.234375 1.453125 -0.671875 L 1.453125 -5.421875 L 1.421875 -5.4375 C 1 -5.3125 0.703125 -5.234375 0.15625 -5.09375 Z M 0.15625 -4.96875 "/>
</g>
<g id="glyph-0-8">
<path d="M 1.984375 -3.671875 C 0.953125 -3.671875 0.234375 -2.90625 0.234375 -1.796875 C 0.234375 -0.71875 0.96875 0.078125 1.96875 0.078125 C 2.984375 0.078125 3.75 -0.765625 3.75 -1.859375 C 3.75 -2.90625 3.015625 -3.671875 1.984375 -3.671875 Z M 1.890625 -3.4375 C 2.5625 -3.4375 3.03125 -2.671875 3.03125 -1.578125 C 3.03125 -0.6875 2.671875 -0.140625 2.078125 -0.140625 C 1.765625 -0.140625 1.46875 -0.328125 1.296875 -0.65625 C 1.078125 -1.0625 0.953125 -1.625 0.953125 -2.1875 C 0.953125 -2.953125 1.328125 -3.4375 1.890625 -3.4375 Z M 1.890625 -3.4375 "/>
</g>
<g id="glyph-0-9">
<path d="M 3.8125 -0.390625 L 3.78125 -0.390625 C 3.40625 -0.390625 3.328125 -0.484375 3.328125 -0.859375 L 3.328125 -3.578125 L 2.0625 -3.578125 L 2.0625 -3.453125 C 2.5625 -3.421875 2.65625 -3.34375 2.65625 -2.953125 L 2.65625 -1.078125 C 2.65625 -0.859375 2.609375 -0.734375 2.5 -0.65625 C 2.28125 -0.484375 2.046875 -0.375 1.796875 -0.375 C 1.484375 -0.375 1.234375 -0.65625 1.234375 -0.984375 L 1.234375 -3.578125 L 0.078125 -3.578125 L 0.078125 -3.46875 C 0.453125 -3.453125 0.5625 -3.328125 0.5625 -2.96875 L 0.5625 -0.953125 C 0.5625 -0.328125 0.953125 0.078125 1.53125 0.078125 C 1.828125 0.078125 2.140625 -0.046875 2.34375 -0.265625 L 2.6875 -0.609375 L 2.6875 0.0625 L 2.71875 0.078125 C 3.125 -0.09375 3.40625 -0.171875 3.8125 -0.28125 Z M 3.8125 -0.390625 "/>
</g>
<g id="glyph-0-10">
<path d="M 5.59375 1.265625 C 4.671875 1.25 4.046875 0.890625 3.390625 0.0625 C 3.9375 -0.046875 4.21875 -0.1875 4.59375 -0.5 C 5.171875 -1.03125 5.484375 -1.75 5.484375 -2.640625 C 5.484375 -4.234375 4.40625 -5.390625 2.875 -5.390625 C 1.359375 -5.390625 0.265625 -4.234375 0.265625 -2.625 C 0.265625 -1.84375 0.515625 -1.1875 0.984375 -0.671875 C 1.296875 -0.34375 1.546875 -0.1875 2.109375 0.015625 L 2.484375 0.453125 C 3.03125 1.078125 4 1.421875 5.265625 1.421875 C 5.375 1.421875 5.453125 1.421875 5.53125 1.40625 L 5.59375 1.40625 Z M 2.90625 -5.09375 C 3.25 -5.09375 3.609375 -4.953125 3.890625 -4.703125 C 4.3125 -4.3125 4.578125 -3.546875 4.578125 -2.65625 C 4.578125 -1.859375 4.34375 -1.046875 4.03125 -0.6875 C 3.734375 -0.359375 3.3125 -0.171875 2.875 -0.171875 C 2.5 -0.171875 2.140625 -0.3125 1.859375 -0.5625 C 1.4375 -0.9375 1.171875 -1.734375 1.171875 -2.671875 C 1.171875 -3.4375 1.40625 -4.21875 1.734375 -4.578125 C 2.0625 -4.9375 2.4375 -5.09375 2.90625 -5.09375 Z M 2.90625 -5.09375 "/>
</g>
<g id="glyph-0-11">
<path d="M 1.609375 -2.3125 C 1.8125 -2.296875 1.953125 -2.296875 2.15625 -2.296875 C 2.78125 -2.296875 3.21875 -2.375 3.546875 -2.5625 C 4.03125 -2.828125 4.3125 -3.3125 4.3125 -3.828125 C 4.3125 -4.171875 4.203125 -4.46875 4 -4.703125 C 3.671875 -5.046875 2.984375 -5.28125 2.234375 -5.28125 L 0.125 -5.28125 L 0.125 -5.125 C 0.71875 -5.0625 0.796875 -4.984375 0.796875 -4.40625 L 0.796875 -0.953125 C 0.796875 -0.28125 0.734375 -0.203125 0.125 -0.15625 L 0.125 0 L 2.359375 0 L 2.359375 -0.15625 C 1.734375 -0.171875 1.609375 -0.28125 1.609375 -0.875 Z M 1.609375 -4.703125 C 1.609375 -4.921875 1.671875 -4.984375 1.875 -4.984375 C 2.953125 -4.984375 3.453125 -4.609375 3.453125 -3.78125 C 3.453125 -3.015625 2.984375 -2.609375 2.0625 -2.609375 C 1.90625 -2.609375 1.796875 -2.625 1.609375 -2.640625 Z M 1.609375 -4.703125 "/>
</g>
<g id="glyph-0-12">
<path d="M 4.875 -4.109375 C 4.875 -4.921875 4.96875 -5.046875 5.625 -5.125 L 5.625 -5.28125 L 3.765625 -5.28125 L 3.765625 -5.125 C 4.390625 -5.078125 4.515625 -4.90625 4.515625 -4.109375 L 4.515625 -1.953125 C 4.515625 -1.40625 4.46875 -1.109375 4.328125 -0.875 C 4.125 -0.484375 3.609375 -0.234375 3.015625 -0.234375 C 2.453125 -0.234375 2.0625 -0.4375 1.84375 -0.8125 C 1.703125 -1.0625 1.640625 -1.359375 1.640625 -1.859375 L 1.640625 -4.40625 C 1.640625 -4.984375 1.734375 -5.0625 2.359375 -5.125 L 2.359375 -5.28125 L 0.109375 -5.28125 L 0.109375 -5.125 C 0.734375 -5.078125 0.828125 -4.984375 0.828125 -4.40625 L 0.828125 -1.921875 C 0.828125 -0.546875 1.46875 0.109375 2.828125 0.109375 C 3.703125 0.109375 4.296875 -0.171875 4.609375 -0.703125 C 4.796875 -1.046875 4.875 -1.40625 4.875 -2.03125 Z M 4.875 -4.109375 "/>
</g>
<g id="glyph-0-13">
<path d="M 2.03125 -5.390625 C 1.578125 -5.390625 1.25 -5.25 0.953125 -4.96875 C 0.5 -4.53125 0.1875 -3.609375 0.1875 -2.671875 C 0.1875 -1.8125 0.453125 -0.875 0.828125 -0.4375 C 1.125 -0.078125 1.53125 0.109375 1.984375 0.109375 C 2.40625 0.109375 2.734375 -0.03125 3.03125 -0.296875 C 3.484375 -0.734375 3.796875 -1.671875 3.796875 -2.625 C 3.796875 -4.265625 3.0625 -5.390625 2.03125 -5.390625 Z M 2 -5.171875 C 2.671875 -5.171875 3.03125 -4.28125 3.03125 -2.609375 C 3.03125 -0.953125 2.671875 -0.09375 1.984375 -0.09375 C 1.3125 -0.09375 0.953125 -0.953125 0.953125 -2.609375 C 0.953125 -4.296875 1.3125 -5.171875 2 -5.171875 Z M 2 -5.171875 "/>
</g>
<g id="glyph-0-14">
<path d="M 1.9375 -1.3125 C 2.03125 -1.84375 2.171875 -2.15625 2.46875 -2.53125 C 2.828125 -2.984375 2.828125 -2.984375 2.9375 -3.140625 C 3.203125 -3.53125 3.296875 -3.828125 3.296875 -4.15625 C 3.296875 -4.453125 3.203125 -4.734375 3.015625 -4.921875 C 2.734375 -5.203125 2.265625 -5.390625 1.828125 -5.390625 C 1.09375 -5.390625 0.546875 -4.890625 0.546875 -4.234375 C 0.546875 -3.90625 0.671875 -3.734375 0.921875 -3.734375 C 1.109375 -3.734375 1.25 -3.875 1.25 -4.0625 C 1.25 -4.171875 1.203125 -4.265625 1.078125 -4.40625 C 0.984375 -4.515625 0.953125 -4.59375 0.953125 -4.65625 C 0.953125 -4.90625 1.3125 -5.140625 1.703125 -5.140625 C 2.1875 -5.140625 2.5625 -4.71875 2.5625 -4.1875 C 2.5625 -3.828125 2.46875 -3.390625 2.265625 -2.953125 L 2.046875 -2.4375 C 1.890625 -2.046875 1.8125 -1.65625 1.8125 -1.3125 Z M 1.890625 -0.78125 C 1.65625 -0.78125 1.46875 -0.59375 1.46875 -0.34375 C 1.46875 -0.109375 1.640625 0.0625 1.875 0.0625 C 2.140625 0.0625 2.3125 -0.109375 2.3125 -0.34375 C 2.3125 -0.59375 2.125 -0.78125 1.890625 -0.78125 Z M 1.890625 -0.78125 "/>
</g>
<g id="glyph-0-15">
<path d="M 3.78125 -3.578125 L 2.703125 -3.578125 L 2.703125 -3.46875 C 2.96875 -3.46875 3.09375 -3.390625 3.09375 -3.265625 C 3.09375 -3.234375 3.078125 -3.1875 3.0625 -3.125 L 2.28125 -0.9375 L 1.375 -2.953125 C 1.328125 -3.0625 1.296875 -3.15625 1.296875 -3.25 C 1.296875 -3.390625 1.40625 -3.453125 1.75 -3.46875 L 1.75 -3.578125 L 0.109375 -3.578125 L 0.109375 -3.46875 C 0.3125 -3.4375 0.453125 -3.359375 0.515625 -3.21875 L 1.421875 -1.265625 L 1.453125 -1.1875 L 1.5625 -0.953125 C 1.796875 -0.5625 1.921875 -0.265625 1.921875 -0.15625 C 1.921875 -0.03125 1.734375 0.46875 1.609375 0.703125 C 1.484375 0.921875 1.3125 1.0625 1.203125 1.0625 C 1.15625 1.0625 1.078125 1.046875 1 1.015625 C 0.859375 0.953125 0.71875 0.921875 0.578125 0.921875 C 0.390625 0.921875 0.234375 1.078125 0.234375 1.28125 C 0.234375 1.53125 0.5 1.734375 0.828125 1.734375 C 1.359375 1.734375 1.75 1.296875 2.171875 0.140625 L 3.40625 -3.109375 C 3.5 -3.359375 3.59375 -3.4375 3.78125 -3.46875 Z M 3.78125 -3.578125 "/>
</g>
<g id="glyph-0-16">
<path d="M 0.125 -3.171875 C 0.171875 -3.203125 0.25 -3.203125 0.34375 -3.203125 C 0.5625 -3.203125 0.640625 -3.078125 0.640625 -2.6875 L 0.640625 -0.71875 C 0.640625 -0.265625 0.546875 -0.15625 0.140625 -0.125 L 0.140625 0 L 1.828125 0 L 1.828125 -0.125 C 1.421875 -0.15625 1.3125 -0.25 1.3125 -0.53125 L 1.3125 -2.765625 C 1.6875 -3.125 1.859375 -3.234375 2.125 -3.234375 C 2.515625 -3.234375 2.703125 -2.984375 2.703125 -2.453125 L 2.703125 -0.78125 C 2.703125 -0.28125 2.609375 -0.15625 2.203125 -0.125 L 2.203125 0 L 3.859375 0 L 3.859375 -0.125 C 3.46875 -0.15625 3.375 -0.25 3.375 -0.640625 L 3.375 -2.46875 C 3.375 -3.21875 3.03125 -3.671875 2.4375 -3.671875 C 2.078125 -3.671875 1.828125 -3.53125 1.28125 -3.015625 L 1.28125 -3.65625 L 1.234375 -3.671875 C 0.84375 -3.515625 0.5625 -3.4375 0.125 -3.3125 Z M 0.125 -3.171875 "/>
</g>
<g id="glyph-0-17">
<path d="M 1.390625 -3.671875 L 0.15625 -3.234375 L 0.15625 -3.109375 L 0.21875 -3.109375 C 0.3125 -3.125 0.421875 -3.140625 0.5 -3.140625 C 0.6875 -3.140625 0.75 -3.015625 0.75 -2.65625 L 0.75 -0.8125 C 0.75 -0.234375 0.671875 -0.15625 0.125 -0.125 L 0.125 0 L 2.015625 0 L 2.015625 -0.125 C 1.484375 -0.15625 1.421875 -0.234375 1.421875 -0.8125 L 1.421875 -3.640625 Z M 1.015625 -5.4375 C 0.8125 -5.4375 0.625 -5.265625 0.625 -5.03125 C 0.625 -4.8125 0.796875 -4.625 1.015625 -4.625 C 1.25 -4.625 1.4375 -4.8125 1.4375 -5.03125 C 1.4375 -5.265625 1.25 -5.4375 1.015625 -5.4375 Z M 1.015625 -5.4375 "/>
</g>
<g id="glyph-0-18">
<path d="M 2.46875 -3.578125 L 1.484375 -3.578125 L 1.484375 -4.515625 C 1.484375 -4.96875 1.640625 -5.21875 1.9375 -5.21875 C 2.109375 -5.21875 2.21875 -5.140625 2.359375 -4.90625 C 2.484375 -4.703125 2.578125 -4.625 2.71875 -4.625 C 2.90625 -4.625 3.046875 -4.765625 3.046875 -4.953125 C 3.046875 -5.234375 2.703125 -5.4375 2.21875 -5.4375 C 1.734375 -5.4375 1.3125 -5.234375 1.09375 -4.859375 C 0.890625 -4.515625 0.828125 -4.21875 0.828125 -3.578125 L 0.171875 -3.578125 L 0.171875 -3.328125 L 0.828125 -3.328125 L 0.828125 -0.828125 C 0.828125 -0.25 0.734375 -0.15625 0.15625 -0.125 L 0.15625 0 L 2.234375 0 L 2.234375 -0.125 C 1.578125 -0.140625 1.484375 -0.234375 1.484375 -0.828125 L 1.484375 -3.328125 L 2.46875 -3.328125 Z M 2.46875 -3.578125 "/>
</g>
<g id="glyph-0-19">
<path d="M 0.25 -3.328125 L 0.78125 -3.328125 L 0.78125 -0.75 C 0.78125 -0.234375 0.703125 -0.140625 0.25 -0.125 L 0.25 0 L 2.015625 0 L 2.015625 -0.125 C 1.5625 -0.15625 1.453125 -0.265625 1.453125 -0.703125 L 1.453125 -3.328125 L 2.140625 -3.328125 C 2.90625 -3.328125 2.953125 -3.296875 2.953125 -2.875 L 2.953125 -0.765625 C 2.953125 -0.234375 2.890625 -0.15625 2.40625 -0.125 L 2.40625 0 L 4.15625 0 L 4.15625 -0.125 C 3.703125 -0.15625 3.625 -0.265625 3.625 -0.765625 L 3.625 -2.859375 C 3.625 -3.03125 3.625 -3.21875 3.640625 -3.640625 L 3.609375 -3.671875 C 3.25 -3.609375 3.015625 -3.578125 2.703125 -3.578125 L 1.453125 -3.578125 L 1.453125 -3.921875 C 1.453125 -4.28125 1.46875 -4.53125 1.515625 -4.65625 C 1.625 -5 1.9375 -5.25 2.296875 -5.25 C 2.515625 -5.25 2.671875 -5.140625 2.859375 -4.875 C 3.015625 -4.65625 3.109375 -4.578125 3.25 -4.578125 C 3.421875 -4.578125 3.53125 -4.703125 3.53125 -4.890625 C 3.53125 -5.21875 3.140625 -5.4375 2.53125 -5.4375 C 1.921875 -5.4375 1.453125 -5.234375 1.171875 -4.84375 C 0.9375 -4.515625 0.84375 -4.21875 0.796875 -3.578125 L 0.25 -3.578125 Z M 0.25 -3.328125 "/>
</g>
<g id="glyph-0-20">
<path d="M 2.21875 0 L 3.8125 0 L 3.8125 -0.125 C 3.5625 -0.125 3.40625 -0.25 3.15625 -0.59375 L 2.140625 -2.15625 L 2.8125 -3.109375 C 2.953125 -3.328125 3.203125 -3.453125 3.453125 -3.46875 L 3.453125 -3.578125 L 2.1875 -3.578125 L 2.1875 -3.46875 C 2.4375 -3.453125 2.515625 -3.40625 2.515625 -3.296875 C 2.515625 -3.203125 2.421875 -3.015625 2.21875 -2.765625 C 2.171875 -2.71875 2.078125 -2.578125 1.96875 -2.421875 L 1.859375 -2.578125 C 1.640625 -2.921875 1.5 -3.1875 1.5 -3.296875 C 1.5 -3.40625 1.609375 -3.453125 1.84375 -3.46875 L 1.84375 -3.578125 L 0.1875 -3.578125 L 0.1875 -3.46875 L 0.265625 -3.46875 C 0.5 -3.46875 0.625 -3.359375 0.875 -2.984375 L 1.625 -1.84375 L 0.71875 -0.53125 C 0.484375 -0.203125 0.390625 -0.140625 0.140625 -0.125 L 0.140625 0 L 1.296875 0 L 1.296875 -0.125 C 1.0625 -0.125 0.96875 -0.15625 0.96875 -0.265625 C 0.96875 -0.3125 1.03125 -0.4375 1.125 -0.59375 L 1.765625 -1.5625 L 2.484375 -0.453125 C 2.515625 -0.40625 2.53125 -0.359375 2.53125 -0.3125 C 2.53125 -0.171875 2.484375 -0.140625 2.21875 -0.125 Z M 2.21875 0 "/>
</g>
<g id="glyph-1-0">
<path d="M 4 -6.046875 L 3.8125 -6.046875 C 3.78125 -5.84375 3.6875 -5.75 3.53125 -5.75 C 3.4375 -5.75 3.28125 -5.78125 3.140625 -5.859375 C 2.796875 -5.984375 2.46875 -6.046875 2.1875 -6.046875 C 1.796875 -6.046875 1.40625 -5.90625 1.109375 -5.640625 C 0.796875 -5.359375 0.640625 -4.984375 0.640625 -4.515625 C 0.640625 -3.8125 1.03125 -3.296875 2.03125 -2.78125 C 2.671875 -2.4375 3.140625 -2.0625 3.359375 -1.734375 C 3.453125 -1.609375 3.484375 -1.421875 3.484375 -1.203125 C 3.484375 -0.609375 3.046875 -0.203125 2.390625 -0.203125 C 1.59375 -0.203125 1.03125 -0.6875 0.578125 -1.78125 L 0.375 -1.78125 L 0.640625 0.109375 L 0.84375 0.109375 C 0.84375 -0.046875 0.953125 -0.171875 1.09375 -0.171875 C 1.1875 -0.171875 1.34375 -0.140625 1.515625 -0.078125 C 1.859375 0.046875 2.21875 0.125 2.5625 0.125 C 3.59375 0.125 4.390625 -0.578125 4.390625 -1.5 C 4.390625 -2.234375 3.90625 -2.8125 2.71875 -3.453125 C 1.78125 -3.96875 1.40625 -4.375 1.40625 -4.859375 C 1.40625 -5.34375 1.78125 -5.6875 2.34375 -5.6875 C 2.734375 -5.6875 3.109375 -5.515625 3.421875 -5.1875 C 3.703125 -4.90625 3.828125 -4.671875 3.96875 -4.140625 L 4.203125 -4.140625 Z M 4 -6.046875 "/>
</g>
<g id="glyph-1-1">
<path d="M 3.65625 -1.46875 C 3.21875 -0.78125 2.84375 -0.53125 2.265625 -0.53125 C 1.75 -0.53125 1.375 -0.78125 1.109375 -1.296875 C 0.953125 -1.640625 0.890625 -1.9375 0.875 -2.484375 L 3.625 -2.484375 C 3.546875 -3.0625 3.46875 -3.328125 3.234375 -3.609375 C 2.96875 -3.9375 2.5625 -4.125 2.09375 -4.125 C 1.640625 -4.125 1.234375 -3.953125 0.890625 -3.65625 C 0.46875 -3.28125 0.21875 -2.65625 0.21875 -1.921875 C 0.21875 -0.6875 0.875 0.09375 1.890625 0.09375 C 2.75 0.09375 3.421875 -0.4375 3.796875 -1.40625 Z M 0.890625 -2.765625 C 0.984375 -3.46875 1.296875 -3.796875 1.828125 -3.796875 C 2.375 -3.796875 2.59375 -3.546875 2.71875 -2.765625 Z M 0.890625 -2.765625 "/>
</g>
<g id="glyph-1-2">
<path d="M 3.078125 0.09375 L 4.390625 -0.375 L 4.390625 -0.515625 C 4.234375 -0.515625 4.21875 -0.515625 4.1875 -0.515625 C 3.875 -0.515625 3.796875 -0.609375 3.796875 -1.015625 L 3.796875 -6.09375 L 3.75 -6.109375 C 3.328125 -5.96875 3.015625 -5.875 2.4375 -5.71875 L 2.4375 -5.578125 C 2.5 -5.59375 2.5625 -5.59375 2.625 -5.59375 C 2.96875 -5.59375 3.046875 -5.5 3.046875 -5.125 L 3.046875 -3.734375 C 2.703125 -4.015625 2.46875 -4.125 2.109375 -4.125 C 1.078125 -4.125 0.234375 -3.109375 0.234375 -1.828125 C 0.234375 -0.6875 0.90625 0.09375 1.890625 0.09375 C 2.40625 0.09375 2.734375 -0.09375 3.046875 -0.515625 L 3.046875 0.0625 Z M 3.046875 -0.90625 C 3.046875 -0.84375 2.984375 -0.75 2.890625 -0.640625 C 2.734375 -0.46875 2.5 -0.375 2.25 -0.375 C 1.5 -0.375 1.015625 -1.09375 1.015625 -2.1875 C 1.015625 -3.203125 1.453125 -3.875 2.125 -3.875 C 2.609375 -3.875 3.046875 -3.453125 3.046875 -2.96875 Z M 3.046875 -0.90625 "/>
</g>
<g id="glyph-1-3">
<path d="M 4.265625 -4.03125 L 3.03125 -4.03125 L 3.03125 -3.890625 C 3.3125 -3.875 3.453125 -3.78125 3.453125 -3.609375 C 3.453125 -3.515625 3.421875 -3.421875 3.390625 -3.34375 L 2.5 -1.015625 L 1.59375 -3.3125 C 1.546875 -3.4375 1.515625 -3.5625 1.515625 -3.640625 C 1.515625 -3.8125 1.609375 -3.875 1.921875 -3.890625 L 1.921875 -4.03125 L 0.171875 -4.03125 L 0.171875 -3.890625 C 0.515625 -3.875 0.578125 -3.78125 0.984375 -2.859375 L 2.0625 -0.296875 C 2.078125 -0.234375 2.109375 -0.171875 2.125 -0.109375 C 2.1875 0.046875 2.234375 0.125 2.296875 0.125 C 2.34375 0.125 2.40625 0.015625 2.546875 -0.328125 L 3.6875 -3.203125 C 3.953125 -3.8125 4 -3.875 4.265625 -3.890625 Z M 4.265625 -4.03125 "/>
</g>
<g id="glyph-1-4">
<path d="M 3.953125 -0.59375 C 3.8125 -0.46875 3.703125 -0.421875 3.5625 -0.421875 C 3.359375 -0.421875 3.296875 -0.546875 3.296875 -0.9375 L 3.296875 -2.6875 C 3.296875 -3.15625 3.25 -3.40625 3.109375 -3.625 C 2.921875 -3.953125 2.53125 -4.125 2 -4.125 C 1.15625 -4.125 0.5 -3.6875 0.5 -3.109375 C 0.5 -2.90625 0.6875 -2.734375 0.890625 -2.734375 C 1.09375 -2.734375 1.296875 -2.90625 1.296875 -3.109375 C 1.296875 -3.140625 1.28125 -3.1875 1.265625 -3.25 C 1.25 -3.328125 1.25 -3.40625 1.25 -3.46875 C 1.25 -3.703125 1.53125 -3.90625 1.890625 -3.90625 C 2.328125 -3.90625 2.5625 -3.640625 2.5625 -3.15625 L 2.5625 -2.609375 C 1.1875 -2.0625 1.03125 -1.984375 0.65625 -1.640625 C 0.453125 -1.46875 0.328125 -1.15625 0.328125 -0.875 C 0.328125 -0.296875 0.71875 0.09375 1.265625 0.09375 C 1.671875 0.09375 2.03125 -0.09375 2.578125 -0.5625 C 2.625 -0.09375 2.78125 0.09375 3.15625 0.09375 C 3.453125 0.09375 3.640625 -0.015625 3.953125 -0.359375 Z M 2.5625 -1.09375 C 2.5625 -0.828125 2.53125 -0.75 2.34375 -0.640625 C 2.125 -0.515625 1.875 -0.4375 1.6875 -0.4375 C 1.375 -0.4375 1.125 -0.734375 1.125 -1.125 L 1.125 -1.15625 C 1.125 -1.6875 1.484375 -2 2.5625 -2.40625 Z M 2.5625 -1.09375 "/>
</g>
<g id="glyph-1-5">
<path d="M 0.171875 -5.578125 L 0.21875 -5.578125 C 0.328125 -5.59375 0.4375 -5.59375 0.5 -5.59375 C 0.78125 -5.59375 0.875 -5.46875 0.875 -5.046875 L 0.875 -0.78125 C 0.875 -0.296875 0.75 -0.171875 0.1875 -0.140625 L 0.1875 0 L 2.296875 0 L 2.296875 -0.140625 C 1.734375 -0.171875 1.625 -0.265625 1.625 -0.75 L 1.625 -6.09375 L 1.59375 -6.109375 C 1.125 -5.96875 0.78125 -5.875 0.171875 -5.71875 Z M 0.171875 -5.578125 "/>
</g>
<g id="glyph-1-6">
<path d="M 1.5625 -4.125 L 0.171875 -3.625 L 0.171875 -3.484375 L 0.25 -3.5 C 0.359375 -3.515625 0.46875 -3.53125 0.5625 -3.53125 C 0.765625 -3.53125 0.84375 -3.390625 0.84375 -2.984375 L 0.84375 -0.90625 C 0.84375 -0.265625 0.765625 -0.171875 0.140625 -0.140625 L 0.140625 0 L 2.265625 0 L 2.265625 -0.140625 C 1.671875 -0.171875 1.609375 -0.265625 1.609375 -0.90625 L 1.609375 -4.09375 Z M 1.140625 -6.109375 C 0.90625 -6.109375 0.703125 -5.90625 0.703125 -5.65625 C 0.703125 -5.40625 0.890625 -5.203125 1.140625 -5.203125 C 1.40625 -5.203125 1.609375 -5.40625 1.609375 -5.65625 C 1.609375 -5.90625 1.40625 -6.109375 1.140625 -6.109375 Z M 1.140625 -6.109375 "/>
</g>
<g id="glyph-1-7">
<path d="M 2.28125 -4.03125 L 1.375 -4.03125 L 1.375 -5.0625 C 1.375 -5.15625 1.375 -5.1875 1.3125 -5.1875 C 1.25 -5.109375 1.203125 -5.015625 1.140625 -4.9375 C 0.796875 -4.4375 0.40625 -4.015625 0.265625 -3.96875 C 0.171875 -3.90625 0.109375 -3.84375 0.109375 -3.8125 C 0.109375 -3.78125 0.125 -3.765625 0.15625 -3.75 L 0.625 -3.75 L 0.625 -1.046875 C 0.625 -0.296875 0.890625 0.09375 1.421875 0.09375 C 1.859375 0.09375 2.203125 -0.125 2.5 -0.59375 L 2.375 -0.6875 C 2.1875 -0.46875 2.046875 -0.375 1.84375 -0.375 C 1.515625 -0.375 1.375 -0.625 1.375 -1.1875 L 1.375 -3.75 L 2.28125 -3.75 Z M 2.28125 -4.03125 "/>
</g>
<g id="glyph-1-8">
<path d="M 0.9375 -0.96875 C 0.9375 -0.328125 0.828125 -0.21875 0.140625 -0.171875 L 0.140625 0 L 2.6875 0 C 3.71875 0 4.671875 -0.296875 5.21875 -0.796875 C 5.796875 -1.328125 6.140625 -2.125 6.140625 -2.984375 C 6.140625 -3.796875 5.859375 -4.5 5.375 -4.984375 C 4.765625 -5.609375 3.78125 -5.921875 2.5625 -5.921875 L 0.140625 -5.921875 L 0.140625 -5.75 C 0.84375 -5.6875 0.9375 -5.609375 0.9375 -4.953125 Z M 1.84375 -5.25 C 1.84375 -5.53125 1.9375 -5.59375 2.3125 -5.59375 C 3.078125 -5.59375 3.65625 -5.453125 4.09375 -5.140625 C 4.796875 -4.671875 5.15625 -3.890625 5.15625 -2.921875 C 5.15625 -1.875 4.796875 -1.125 4.0625 -0.703125 C 3.609375 -0.4375 3.09375 -0.328125 2.3125 -0.328125 C 1.953125 -0.328125 1.84375 -0.40625 1.84375 -0.703125 Z M 1.84375 -5.25 "/>
</g>
<g id="glyph-1-9">
<path d="M 5.90625 -0.171875 C 5.5625 -0.203125 5.375 -0.28125 5.125 -0.59375 L 3.28125 -2.859375 C 3.875 -2.96875 4.140625 -3.078125 4.4375 -3.328125 C 4.734375 -3.546875 4.890625 -3.9375 4.890625 -4.34375 C 4.890625 -4.734375 4.78125 -5.0625 4.546875 -5.328125 C 4.203125 -5.6875 3.46875 -5.921875 2.625 -5.921875 L 0.15625 -5.921875 L 0.15625 -5.75 C 0.828125 -5.6875 0.90625 -5.59375 0.90625 -4.953125 L 0.90625 -1.078125 C 0.90625 -0.328125 0.828125 -0.21875 0.15625 -0.171875 L 0.15625 0 L 2.625 0 L 2.625 -0.171875 C 1.9375 -0.21875 1.828125 -0.328125 1.828125 -0.96875 L 1.828125 -2.734375 L 2.328125 -2.75 L 4.453125 0 L 5.90625 0 Z M 1.828125 -5.265625 C 1.828125 -5.53125 1.921875 -5.59375 2.28125 -5.59375 C 3.40625 -5.59375 3.921875 -5.203125 3.921875 -4.375 C 3.921875 -3.921875 3.734375 -3.546875 3.40625 -3.375 C 3 -3.140625 2.6875 -3.09375 1.828125 -3.078125 Z M 1.828125 -5.265625 "/>
</g>
<g id="glyph-1-10">
<path d="M 0.15625 -5.921875 L 0.15625 -5.75 C 0.90625 -5.71875 1.015625 -5.609375 1.015625 -4.953125 L 1.015625 -0.96875 C 1.015625 -0.3125 0.890625 -0.203125 0.15625 -0.171875 L 0.15625 0 L 3.140625 0 C 3.84375 0 4.46875 -0.1875 4.8125 -0.5 C 5.125 -0.78125 5.3125 -1.1875 5.3125 -1.609375 C 5.3125 -2 5.140625 -2.359375 4.875 -2.625 C 4.609375 -2.859375 4.359375 -2.96875 3.78125 -3.109375 C 4.25 -3.234375 4.4375 -3.328125 4.640625 -3.515625 C 4.875 -3.703125 5 -4.03125 5 -4.40625 C 5 -5.40625 4.203125 -5.921875 2.65625 -5.921875 Z M 1.921875 -2.921875 C 2.796875 -2.921875 3.203125 -2.875 3.53125 -2.734375 C 4.03125 -2.53125 4.28125 -2.171875 4.28125 -1.609375 C 4.28125 -1.125 4.09375 -0.765625 3.734375 -0.5625 C 3.453125 -0.40625 3.078125 -0.328125 2.484375 -0.328125 C 2.046875 -0.328125 1.921875 -0.40625 1.921875 -0.703125 Z M 1.921875 -3.28125 L 1.921875 -5.328125 C 1.921875 -5.515625 1.984375 -5.59375 2.125 -5.59375 L 2.515625 -5.59375 C 3.546875 -5.59375 4.09375 -5.171875 4.09375 -4.375 C 4.09375 -3.671875 3.609375 -3.28125 2.78125 -3.28125 Z M 1.921875 -3.28125 "/>
</g>
<g id="glyph-1-11">
<path d="M 6.34375 -3.171875 L 4.0625 -3.171875 L 4.0625 -3.015625 C 4.453125 -2.984375 4.5625 -2.953125 4.671875 -2.890625 C 4.796875 -2.796875 4.859375 -2.59375 4.859375 -2.21875 L 4.859375 -0.765625 C 4.859375 -0.46875 4.3125 -0.234375 3.65625 -0.234375 C 2.203125 -0.234375 1.3125 -1.25 1.3125 -2.921875 C 1.3125 -3.765625 1.5625 -4.578125 1.953125 -5.015625 C 2.34375 -5.453125 2.90625 -5.6875 3.515625 -5.6875 C 4.015625 -5.6875 4.453125 -5.53125 4.796875 -5.203125 C 5.0625 -4.953125 5.203125 -4.703125 5.4375 -4.15625 L 5.640625 -4.15625 L 5.5625 -6.046875 L 5.375 -6.046875 C 5.3125 -5.875 5.15625 -5.75 4.96875 -5.75 C 4.875 -5.75 4.734375 -5.78125 4.578125 -5.84375 C 4.171875 -5.984375 3.765625 -6.046875 3.359375 -6.046875 C 1.5625 -6.046875 0.28125 -4.734375 0.28125 -2.90625 C 0.28125 -2.03125 0.53125 -1.359375 1.03125 -0.828125 C 1.625 -0.21875 2.484375 0.125 3.46875 0.125 C 4.25 0.125 5.359375 -0.1875 5.71875 -0.5 L 5.71875 -2.3125 C 5.71875 -2.84375 5.828125 -2.96875 6.34375 -3.015625 Z M 6.34375 -3.171875 "/>
</g>
<g id="glyph-1-12">
<path d="M 1.875 -3.21875 L 1.875 -4.953125 C 1.875 -5.59375 1.96875 -5.6875 2.65625 -5.75 L 2.65625 -5.921875 L 0.171875 -5.921875 L 0.171875 -5.75 C 0.859375 -5.6875 0.953125 -5.59375 0.953125 -4.953125 L 0.953125 -1.078125 C 0.953125 -0.328125 0.875 -0.21875 0.171875 -0.171875 L 0.171875 0 L 2.65625 0 L 2.65625 -0.171875 C 1.984375 -0.21875 1.875 -0.34375 1.875 -0.96875 L 1.875 -2.8125 L 4.578125 -2.8125 L 4.578125 -1.078125 C 4.578125 -0.328125 4.5 -0.21875 3.796875 -0.171875 L 3.796875 0 L 6.28125 0 L 6.28125 -0.171875 C 5.609375 -0.21875 5.5 -0.34375 5.5 -0.96875 L 5.5 -4.953125 C 5.5 -5.59375 5.59375 -5.6875 6.28125 -5.75 L 6.28125 -5.921875 L 3.796875 -5.921875 L 3.796875 -5.75 C 4.484375 -5.6875 4.578125 -5.59375 4.578125 -4.953125 L 4.578125 -3.21875 Z M 1.875 -3.21875 "/>
</g>
<g id="glyph-1-13">
<path d="M 5.34375 -1.515625 L 5.09375 -1.515625 C 4.640625 -0.546875 4.265625 -0.328125 2.984375 -0.328125 L 2.734375 -0.328125 C 2.296875 -0.328125 1.921875 -0.375 1.859375 -0.4375 C 1.8125 -0.46875 1.796875 -0.5625 1.796875 -0.71875 L 1.796875 -2.921875 L 3.171875 -2.921875 C 3.90625 -2.921875 4.046875 -2.8125 4.15625 -2.0625 L 4.375 -2.0625 L 4.375 -4.140625 L 4.15625 -4.140625 C 4.09375 -3.78125 4.0625 -3.640625 3.96875 -3.515625 C 3.84375 -3.359375 3.59375 -3.296875 3.171875 -3.296875 L 1.796875 -3.296875 L 1.796875 -5.28125 C 1.796875 -5.53125 1.859375 -5.59375 2.09375 -5.59375 L 3.296875 -5.59375 C 4.3125 -5.59375 4.515625 -5.453125 4.671875 -4.640625 L 4.890625 -4.640625 L 4.859375 -5.921875 L 0.109375 -5.921875 L 0.109375 -5.75 C 0.765625 -5.703125 0.890625 -5.578125 0.890625 -4.953125 L 0.890625 -0.96875 C 0.890625 -0.34375 0.765625 -0.21875 0.109375 -0.171875 L 0.109375 0 L 4.9375 0 Z M 5.34375 -1.515625 "/>
</g>
<g id="glyph-1-14">
<path d="M 0.140625 -3.5625 C 0.203125 -3.59375 0.28125 -3.59375 0.390625 -3.59375 C 0.640625 -3.59375 0.71875 -3.46875 0.71875 -3.03125 L 0.71875 -0.8125 C 0.71875 -0.296875 0.625 -0.171875 0.15625 -0.140625 L 0.15625 0 L 2.0625 0 L 2.0625 -0.140625 C 1.609375 -0.171875 1.46875 -0.28125 1.46875 -0.59375 L 1.46875 -3.109375 C 1.890625 -3.515625 2.09375 -3.625 2.390625 -3.625 C 2.828125 -3.625 3.046875 -3.34375 3.046875 -2.75 L 3.046875 -0.890625 C 3.046875 -0.328125 2.921875 -0.171875 2.484375 -0.140625 L 2.484375 0 L 4.34375 0 L 4.34375 -0.140625 C 3.90625 -0.171875 3.796875 -0.28125 3.796875 -0.71875 L 3.796875 -2.78125 C 3.796875 -3.609375 3.40625 -4.125 2.734375 -4.125 C 2.328125 -4.125 2.046875 -3.96875 1.4375 -3.390625 L 1.4375 -4.09375 L 1.375 -4.125 C 0.9375 -3.953125 0.640625 -3.859375 0.140625 -3.71875 Z M 0.140625 -3.5625 "/>
</g>
<g id="glyph-1-15">
<path d="M 3.5625 -1.390625 C 3.140625 -0.765625 2.8125 -0.5625 2.296875 -0.5625 C 1.484375 -0.5625 0.90625 -1.265625 0.90625 -2.296875 C 0.90625 -3.21875 1.40625 -3.859375 2.125 -3.859375 C 2.453125 -3.859375 2.5625 -3.765625 2.65625 -3.421875 L 2.71875 -3.234375 C 2.78125 -2.984375 2.953125 -2.8125 3.140625 -2.8125 C 3.359375 -2.8125 3.5625 -2.984375 3.5625 -3.203125 C 3.5625 -3.703125 2.9375 -4.125 2.1875 -4.125 C 1.75 -4.125 1.296875 -3.9375 0.921875 -3.609375 C 0.46875 -3.21875 0.21875 -2.609375 0.21875 -1.90625 C 0.21875 -0.75 0.9375 0.09375 1.921875 0.09375 C 2.328125 0.09375 2.6875 -0.046875 3.015625 -0.328125 C 3.25 -0.546875 3.421875 -0.78125 3.6875 -1.3125 Z M 3.5625 -1.390625 "/>
</g>
<g id="glyph-1-16">
<path d="M 2.234375 -4.125 C 1.078125 -4.125 0.265625 -3.265625 0.265625 -2.015625 C 0.265625 -0.8125 1.09375 0.09375 2.21875 0.09375 C 3.34375 0.09375 4.203125 -0.859375 4.203125 -2.09375 C 4.203125 -3.265625 3.390625 -4.125 2.234375 -4.125 Z M 2.125 -3.875 C 2.875 -3.875 3.40625 -3.015625 3.40625 -1.78125 C 3.40625 -0.765625 3 -0.15625 2.328125 -0.15625 C 1.984375 -0.15625 1.640625 -0.375 1.453125 -0.734375 C 1.203125 -1.203125 1.0625 -1.828125 1.0625 -2.46875 C 1.0625 -3.3125 1.484375 -3.875 2.125 -3.875 Z M 2.125 -3.875 "/>
</g>
<g id="glyph-1-17">
<path d="M 0.0625 -3.484375 C 0.1875 -3.515625 0.265625 -3.53125 0.375 -3.53125 C 0.59375 -3.53125 0.6875 -3.390625 0.6875 -2.984375 L 0.6875 -0.75 C 0.6875 -0.296875 0.625 -0.234375 0.046875 -0.140625 L 0.046875 0 L 2.1875 0 L 2.1875 -0.140625 C 1.578125 -0.15625 1.4375 -0.296875 1.4375 -0.8125 L 1.4375 -2.8125 C 1.4375 -3.109375 1.8125 -3.546875 2.0625 -3.546875 C 2.109375 -3.546875 2.1875 -3.515625 2.296875 -3.421875 C 2.4375 -3.296875 2.53125 -3.234375 2.65625 -3.234375 C 2.859375 -3.234375 3 -3.390625 3 -3.640625 C 3 -3.9375 2.8125 -4.125 2.5 -4.125 C 2.125 -4.125 1.875 -3.90625 1.4375 -3.28125 L 1.4375 -4.09375 L 1.390625 -4.125 C 0.90625 -3.921875 0.59375 -3.8125 0.0625 -3.640625 Z M 0.0625 -3.484375 "/>
</g>
<g id="glyph-1-18">
<path d="M 2.28125 -6.046875 C 1.78125 -6.046875 1.40625 -5.90625 1.078125 -5.59375 C 0.5625 -5.078125 0.21875 -4.0625 0.21875 -3.015625 C 0.21875 -2.03125 0.515625 -0.984375 0.9375 -0.484375 C 1.265625 -0.09375 1.71875 0.125 2.234375 0.125 C 2.6875 0.125 3.078125 -0.03125 3.40625 -0.34375 C 3.921875 -0.828125 4.265625 -1.875 4.265625 -2.953125 C 4.265625 -4.796875 3.453125 -6.046875 2.28125 -6.046875 Z M 2.25 -5.8125 C 3 -5.8125 3.40625 -4.8125 3.40625 -2.9375 C 3.40625 -1.0625 3.015625 -0.109375 2.234375 -0.109375 C 1.46875 -0.109375 1.078125 -1.0625 1.078125 -2.921875 C 1.078125 -4.828125 1.484375 -5.8125 2.25 -5.8125 Z M 2.25 -5.8125 "/>
</g>
<g id="glyph-1-19">
<path d="M 4.28125 -2.0625 L 4.28125 -4.140625 L 4.078125 -4.140625 C 3.96875 -3.421875 3.8125 -3.296875 3.09375 -3.296875 L 1.796875 -3.296875 L 1.796875 -5.28125 C 1.796875 -5.53125 1.84375 -5.59375 2.09375 -5.59375 L 3.296875 -5.59375 C 4.3125 -5.59375 4.515625 -5.453125 4.671875 -4.640625 L 4.890625 -4.640625 L 4.859375 -5.921875 L 0.109375 -5.921875 L 0.109375 -5.75 C 0.765625 -5.703125 0.890625 -5.578125 0.890625 -4.953125 L 0.890625 -1.078125 C 0.890625 -0.328125 0.78125 -0.21875 0.109375 -0.171875 L 0.109375 0 L 2.609375 0 L 2.609375 -0.171875 C 1.921875 -0.203125 1.796875 -0.328125 1.796875 -0.96875 L 1.796875 -2.921875 L 3.09375 -2.921875 C 3.828125 -2.921875 3.96875 -2.796875 4.078125 -2.0625 Z M 4.28125 -2.0625 "/>
</g>
<g id="glyph-1-20">
<path d="M 4.28125 -0.453125 L 4.25 -0.453125 C 3.828125 -0.453125 3.734375 -0.546875 3.734375 -0.953125 L 3.734375 -4.03125 L 2.3125 -4.03125 L 2.3125 -3.875 C 2.875 -3.84375 2.984375 -3.765625 2.984375 -3.3125 L 2.984375 -1.203125 C 2.984375 -0.953125 2.9375 -0.828125 2.8125 -0.734375 C 2.5625 -0.53125 2.296875 -0.4375 2.015625 -0.4375 C 1.671875 -0.4375 1.390625 -0.734375 1.390625 -1.109375 L 1.390625 -4.03125 L 0.078125 -4.03125 L 0.078125 -3.90625 C 0.515625 -3.875 0.640625 -3.75 0.640625 -3.328125 L 0.640625 -1.078125 C 0.640625 -0.359375 1.0625 0.09375 1.71875 0.09375 C 2.046875 0.09375 2.40625 -0.046875 2.640625 -0.296875 L 3.03125 -0.6875 L 3.03125 0.0625 L 3.0625 0.078125 C 3.515625 -0.09375 3.828125 -0.203125 4.28125 -0.328125 Z M 4.28125 -0.453125 "/>
</g>
<g id="glyph-1-21">
<path d="M 5.109375 -4.03125 L 5.109375 -3.890625 C 5.421875 -3.828125 5.5 -3.765625 5.5 -3.609375 C 5.5 -3.484375 5.453125 -3.265625 5.359375 -3.03125 L 4.546875 -1.03125 L 3.796875 -3.046875 C 3.640625 -3.453125 3.640625 -3.453125 3.640625 -3.578125 C 3.640625 -3.765625 3.75 -3.828125 4.15625 -3.890625 L 4.15625 -4.03125 L 2.34375 -4.03125 L 2.34375 -3.890625 C 2.671875 -3.859375 2.78125 -3.765625 2.96875 -3.28125 C 3.03125 -3.109375 3.09375 -2.9375 3.140625 -2.78125 L 2.328125 -1 L 1.4375 -3.328125 C 1.40625 -3.421875 1.390625 -3.515625 1.390625 -3.59375 C 1.390625 -3.78125 1.5 -3.859375 1.796875 -3.890625 L 1.796875 -4.03125 L 0.1875 -4.03125 L 0.1875 -3.890625 C 0.390625 -3.875 0.46875 -3.78125 0.65625 -3.328125 L 1.875 -0.265625 C 1.984375 0 2.046875 0.125 2.109375 0.125 C 2.15625 0.125 2.21875 0.015625 2.328125 -0.21875 L 3.328125 -2.375 L 4.140625 -0.265625 C 4.265625 0.078125 4.3125 0.125 4.359375 0.125 C 4.421875 0.125 4.46875 0.046875 4.609375 -0.3125 L 5.84375 -3.40625 C 6 -3.78125 6.03125 -3.828125 6.21875 -3.890625 L 6.21875 -4.03125 Z M 5.109375 -4.03125 "/>
</g>
<g id="glyph-1-22">
<path d="M 5.546875 -4.03125 L 5.46875 -6.046875 L 5.28125 -6.046875 C 5.234375 -5.859375 5.078125 -5.75 4.90625 -5.75 C 4.828125 -5.75 4.6875 -5.78125 4.5625 -5.84375 C 4.125 -5.984375 3.671875 -6.046875 3.25 -6.046875 C 2.515625 -6.046875 1.765625 -5.78125 1.21875 -5.28125 C 0.59375 -4.734375 0.25 -3.890625 0.25 -2.90625 C 0.25 -2.078125 0.515625 -1.3125 0.96875 -0.796875 C 1.515625 -0.21875 2.34375 0.125 3.21875 0.125 C 4.234375 0.125 5.125 -0.28125 5.671875 -1.015625 L 5.5 -1.171875 C 4.84375 -0.53125 4.25 -0.265625 3.515625 -0.265625 C 2.953125 -0.265625 2.4375 -0.453125 2.0625 -0.78125 C 1.5625 -1.234375 1.296875 -2.03125 1.296875 -3.03125 C 1.296875 -4.640625 2.125 -5.6875 3.421875 -5.6875 C 3.9375 -5.6875 4.390625 -5.5 4.75 -5.140625 C 5.046875 -4.859375 5.171875 -4.609375 5.34375 -4.03125 Z M 5.546875 -4.03125 "/>
</g>
<g id="glyph-1-23">
<path d="M 0.34375 -2.296875 L 0.34375 -1.734375 L 2.546875 -1.734375 L 2.546875 -2.296875 Z M 0.34375 -2.296875 "/>
</g>
<g id="glyph-1-24">
<path d="M 2.8125 -2.8125 L 2.78125 -4.03125 L 2.6875 -4.03125 L 2.671875 -4.015625 C 2.59375 -3.953125 2.578125 -3.9375 2.546875 -3.9375 C 2.484375 -3.9375 2.40625 -3.953125 2.296875 -4 C 2.109375 -4.078125 1.90625 -4.109375 1.671875 -4.109375 C 0.96875 -4.109375 0.453125 -3.65625 0.453125 -3.015625 C 0.453125 -2.5 0.75 -2.15625 1.5 -1.71875 L 2.015625 -1.421875 C 2.34375 -1.25 2.484375 -1.03125 2.484375 -0.75 C 2.484375 -0.359375 2.203125 -0.109375 1.75 -0.109375 C 1.4375 -0.109375 1.15625 -0.21875 1 -0.421875 C 0.8125 -0.640625 0.71875 -0.84375 0.609375 -1.359375 L 0.46875 -1.359375 L 0.46875 0.03125 L 0.578125 0.03125 C 0.640625 -0.046875 0.6875 -0.078125 0.78125 -0.078125 C 0.875 -0.078125 1 -0.046875 1.203125 0 C 1.453125 0.046875 1.6875 0.09375 1.859375 0.09375 C 2.546875 0.09375 3.109375 -0.4375 3.109375 -1.0625 C 3.109375 -1.5 2.90625 -1.796875 2.359375 -2.125 L 1.390625 -2.6875 C 1.140625 -2.84375 1.015625 -3.0625 1.015625 -3.296875 C 1.015625 -3.65625 1.296875 -3.90625 1.703125 -3.90625 C 2.21875 -3.90625 2.484375 -3.609375 2.6875 -2.8125 Z M 2.8125 -2.8125 "/>
</g>
<g id="glyph-1-25">
<path d="M 4.25 -4.03125 L 3.046875 -4.03125 L 3.046875 -3.890625 C 3.328125 -3.890625 3.46875 -3.8125 3.46875 -3.671875 C 3.46875 -3.640625 3.46875 -3.578125 3.4375 -3.515625 L 2.5625 -1.046875 L 1.546875 -3.3125 C 1.484375 -3.4375 1.453125 -3.546875 1.453125 -3.65625 C 1.453125 -3.8125 1.578125 -3.875 1.96875 -3.890625 L 1.96875 -4.03125 L 0.125 -4.03125 L 0.125 -3.90625 C 0.359375 -3.875 0.515625 -3.765625 0.578125 -3.609375 L 1.609375 -1.421875 L 1.625 -1.34375 L 1.765625 -1.078125 C 2.015625 -0.625 2.15625 -0.296875 2.15625 -0.171875 C 2.15625 -0.03125 1.953125 0.53125 1.796875 0.796875 C 1.671875 1.03125 1.484375 1.203125 1.359375 1.203125 C 1.296875 1.203125 1.21875 1.1875 1.125 1.140625 C 0.953125 1.078125 0.8125 1.03125 0.65625 1.03125 C 0.453125 1.03125 0.265625 1.21875 0.265625 1.4375 C 0.265625 1.734375 0.5625 1.953125 0.9375 1.953125 C 1.53125 1.953125 1.953125 1.453125 2.4375 0.15625 L 3.828125 -3.484375 C 3.9375 -3.78125 4.03125 -3.875 4.25 -3.890625 Z M 4.25 -4.03125 "/>
</g>
<g id="glyph-1-26">
<path d="M 4.203125 -3.46875 L 4.203125 -3.828125 L 3.515625 -3.828125 C 3.34375 -3.828125 3.203125 -3.84375 3.03125 -3.90625 L 2.828125 -3.984375 C 2.59375 -4.078125 2.34375 -4.125 2.109375 -4.125 C 1.28125 -4.125 0.625 -3.46875 0.625 -2.65625 C 0.625 -2.09375 0.859375 -1.75 1.453125 -1.453125 C 1.28125 -1.296875 1.125 -1.140625 1.0625 -1.09375 C 0.765625 -0.84375 0.65625 -0.65625 0.65625 -0.484375 C 0.65625 -0.296875 0.765625 -0.1875 1.125 -0.015625 C 0.5 0.453125 0.25 0.75 0.25 1.078125 C 0.25 1.5625 0.953125 1.953125 1.796875 1.953125 C 2.46875 1.953125 3.171875 1.71875 3.640625 1.34375 C 3.96875 1.0625 4.125 0.78125 4.125 0.4375 C 4.125 -0.109375 3.703125 -0.5 3.046875 -0.515625 L 1.890625 -0.578125 C 1.421875 -0.59375 1.1875 -0.671875 1.1875 -0.8125 C 1.1875 -1 1.484375 -1.3125 1.734375 -1.375 C 1.8125 -1.375 1.875 -1.359375 1.890625 -1.359375 C 2.0625 -1.34375 2.1875 -1.328125 2.234375 -1.328125 C 2.5625 -1.328125 2.921875 -1.46875 3.203125 -1.703125 C 3.5 -1.953125 3.640625 -2.28125 3.640625 -2.71875 C 3.640625 -2.984375 3.59375 -3.1875 3.46875 -3.46875 Z M 1.3125 0.015625 C 1.609375 0.078125 2.328125 0.140625 2.765625 0.140625 C 3.578125 0.140625 3.875 0.25 3.875 0.578125 C 3.875 1.09375 3.203125 1.4375 2.1875 1.4375 C 1.390625 1.4375 0.875 1.1875 0.875 0.78125 C 0.875 0.578125 0.9375 0.46875 1.3125 0.015625 Z M 1.359375 -3.03125 C 1.359375 -3.546875 1.609375 -3.875 2.015625 -3.875 C 2.296875 -3.875 2.53125 -3.71875 2.671875 -3.453125 C 2.84375 -3.140625 2.953125 -2.71875 2.953125 -2.375 C 2.953125 -1.875 2.6875 -1.5625 2.28125 -1.5625 C 1.734375 -1.5625 1.359375 -2.140625 1.359375 -3 Z M 1.359375 -3.03125 "/>
</g>
<g id="glyph-1-27">
<path d="M 1.40625 -3.078125 C 1.78125 -3.484375 2.046875 -3.640625 2.40625 -3.640625 C 2.84375 -3.640625 3.078125 -3.3125 3.078125 -2.6875 L 3.078125 -0.90625 C 3.078125 -0.296875 2.984375 -0.1875 2.46875 -0.140625 L 2.46875 0 L 4.359375 0 L 4.359375 -0.140625 C 3.875 -0.21875 3.828125 -0.296875 3.828125 -0.90625 L 3.828125 -2.6875 C 3.828125 -3.640625 3.453125 -4.125 2.71875 -4.125 C 2.1875 -4.125 1.8125 -3.90625 1.40625 -3.359375 L 1.40625 -6.09375 L 1.359375 -6.109375 C 1.0625 -6 0.828125 -5.9375 0.328125 -5.796875 L 0.09375 -5.71875 L 0.09375 -5.578125 C 0.125 -5.59375 0.15625 -5.59375 0.203125 -5.59375 C 0.578125 -5.59375 0.65625 -5.515625 0.65625 -5.125 L 0.65625 -0.90625 C 0.65625 -0.28125 0.59375 -0.203125 0.078125 -0.140625 L 0.078125 0 L 2.015625 0 L 2.015625 -0.140625 C 1.5 -0.1875 1.40625 -0.296875 1.40625 -0.90625 Z M 1.40625 -3.078125 "/>
</g>
<g id="glyph-1-28">
<path d="M 1.8125 -2.609375 C 2.046875 -2.59375 2.1875 -2.578125 2.421875 -2.578125 C 3.125 -2.578125 3.609375 -2.671875 4 -2.890625 C 4.53125 -3.171875 4.859375 -3.71875 4.859375 -4.3125 C 4.859375 -4.6875 4.734375 -5.015625 4.484375 -5.28125 C 4.125 -5.671875 3.34375 -5.921875 2.5 -5.921875 L 0.140625 -5.921875 L 0.140625 -5.75 C 0.8125 -5.6875 0.890625 -5.59375 0.890625 -4.953125 L 0.890625 -1.078125 C 0.890625 -0.328125 0.828125 -0.234375 0.140625 -0.171875 L 0.140625 0 L 2.65625 0 L 2.65625 -0.171875 C 1.9375 -0.203125 1.8125 -0.328125 1.8125 -0.96875 Z M 1.8125 -5.296875 C 1.8125 -5.53125 1.875 -5.59375 2.109375 -5.59375 C 3.328125 -5.59375 3.875 -5.171875 3.875 -4.25 C 3.875 -3.390625 3.34375 -2.9375 2.3125 -2.9375 C 2.140625 -2.9375 2.015625 -2.953125 1.8125 -2.96875 Z M 1.8125 -5.296875 "/>
</g>
<g id="glyph-1-29">
<path d="M 0.171875 -3.5625 C 0.28125 -3.59375 0.359375 -3.59375 0.453125 -3.59375 C 0.6875 -3.59375 0.765625 -3.453125 0.765625 -3.03125 L 0.765625 -0.765625 C 0.765625 -0.28125 0.640625 -0.140625 0.140625 -0.140625 L 0.140625 0 L 2.125 0 L 2.125 -0.140625 C 1.65625 -0.15625 1.515625 -0.25 1.515625 -0.59375 L 1.515625 -3.125 C 1.515625 -3.140625 1.59375 -3.234375 1.65625 -3.296875 C 1.875 -3.5 2.265625 -3.65625 2.578125 -3.65625 C 2.96875 -3.65625 3.171875 -3.34375 3.171875 -2.71875 L 3.171875 -0.765625 C 3.171875 -0.265625 3.078125 -0.171875 2.5625 -0.140625 L 2.5625 0 L 4.5625 0 L 4.5625 -0.140625 C 4.0625 -0.140625 3.921875 -0.296875 3.921875 -0.84375 L 3.921875 -3.109375 C 4.1875 -3.484375 4.484375 -3.65625 4.890625 -3.65625 C 5.40625 -3.65625 5.5625 -3.40625 5.5625 -2.671875 L 5.5625 -0.78125 C 5.5625 -0.265625 5.5 -0.203125 4.984375 -0.140625 L 4.984375 0 L 6.9375 0 L 6.9375 -0.140625 L 6.703125 -0.15625 C 6.4375 -0.171875 6.328125 -0.328125 6.328125 -0.6875 L 6.328125 -2.53125 C 6.328125 -3.578125 5.96875 -4.125 5.28125 -4.125 C 4.765625 -4.125 4.3125 -3.890625 3.828125 -3.359375 C 3.65625 -3.875 3.359375 -4.125 2.875 -4.125 C 2.484375 -4.125 2.234375 -4 1.484375 -3.421875 L 1.484375 -4.09375 L 1.421875 -4.125 C 0.96875 -3.953125 0.65625 -3.84375 0.171875 -3.71875 Z M 0.171875 -3.5625 "/>
</g>
<g id="glyph-1-30">
<path d="M 2.484375 0 L 4.28125 0 L 4.28125 -0.140625 C 4.015625 -0.140625 3.828125 -0.28125 3.546875 -0.671875 L 2.40625 -2.421875 L 3.15625 -3.5 C 3.328125 -3.75 3.59375 -3.890625 3.875 -3.890625 L 3.875 -4.03125 L 2.46875 -4.03125 L 2.46875 -3.890625 C 2.734375 -3.875 2.8125 -3.828125 2.8125 -3.703125 C 2.8125 -3.59375 2.71875 -3.390625 2.484375 -3.109375 C 2.4375 -3.0625 2.34375 -2.90625 2.21875 -2.71875 L 2.09375 -2.90625 C 1.84375 -3.28125 1.6875 -3.578125 1.6875 -3.703125 C 1.6875 -3.828125 1.796875 -3.890625 2.0625 -3.890625 L 2.0625 -4.03125 L 0.21875 -4.03125 L 0.21875 -3.890625 L 0.296875 -3.890625 C 0.5625 -3.890625 0.703125 -3.78125 0.984375 -3.359375 L 1.828125 -2.0625 L 0.8125 -0.59375 C 0.53125 -0.21875 0.453125 -0.15625 0.15625 -0.140625 L 0.15625 0 L 1.453125 0 L 1.453125 -0.140625 C 1.203125 -0.140625 1.09375 -0.171875 1.09375 -0.296875 C 1.09375 -0.34375 1.15625 -0.484375 1.265625 -0.65625 L 1.984375 -1.765625 L 2.796875 -0.515625 C 2.828125 -0.453125 2.84375 -0.40625 2.84375 -0.34375 C 2.84375 -0.1875 2.78125 -0.15625 2.484375 -0.140625 Z M 2.484375 0 "/>
</g>
<g id="glyph-1-31">
<path d="M 6.328125 -0.171875 C 5.921875 -0.203125 5.828125 -0.28125 5.515625 -0.953125 L 3.28125 -6.03125 L 3.109375 -6.03125 L 1.25 -1.640625 C 0.671875 -0.328125 0.5625 -0.1875 0.140625 -0.171875 L 0.140625 0 L 1.90625 0 L 1.90625 -0.171875 C 1.484375 -0.171875 1.296875 -0.28125 1.296875 -0.53125 C 1.296875 -0.640625 1.328125 -0.765625 1.375 -0.890625 L 1.78125 -1.9375 L 4.125 -1.9375 L 4.5 -1.078125 C 4.609375 -0.828125 4.671875 -0.59375 4.671875 -0.46875 C 4.671875 -0.25 4.515625 -0.171875 4.03125 -0.171875 L 4.03125 0 L 6.328125 0 Z M 1.9375 -2.296875 L 2.96875 -4.765625 L 4 -2.296875 Z M 1.9375 -2.296875 "/>
</g>
<g id="glyph-1-32">
<path d="M 0.078125 -3.515625 C 0.15625 -3.53125 0.21875 -3.53125 0.296875 -3.53125 C 0.609375 -3.53125 0.671875 -3.4375 0.671875 -3.015625 L 0.671875 1.171875 C 0.671875 1.640625 0.578125 1.734375 0.046875 1.796875 L 0.046875 1.9375 L 2.21875 1.9375 L 2.21875 1.78125 C 1.546875 1.765625 1.421875 1.671875 1.421875 1.109375 L 1.421875 -0.296875 C 1.734375 0 1.953125 0.09375 2.328125 0.09375 C 3.390625 0.09375 4.203125 -0.90625 4.203125 -2.21875 C 4.203125 -3.328125 3.578125 -4.125 2.71875 -4.125 C 2.21875 -4.125 1.8125 -3.890625 1.421875 -3.40625 L 1.421875 -4.09375 L 1.375 -4.125 C 0.890625 -3.9375 0.578125 -3.8125 0.078125 -3.65625 Z M 1.421875 -2.984375 C 1.421875 -3.265625 1.921875 -3.578125 2.34375 -3.578125 C 3 -3.578125 3.4375 -2.90625 3.4375 -1.859375 C 3.4375 -0.875 3 -0.203125 2.359375 -0.203125 C 1.9375 -0.203125 1.421875 -0.515625 1.421875 -0.78125 Z M 1.421875 -2.984375 "/>
</g>
<g id="glyph-1-33">
<path d="M 1.21875 -4.109375 C 0.953125 -4.109375 0.71875 -3.875 0.71875 -3.59375 C 0.71875 -3.34375 0.953125 -3.109375 1.203125 -3.109375 C 1.484375 -3.109375 1.71875 -3.34375 1.71875 -3.59375 C 1.71875 -3.875 1.484375 -4.109375 1.21875 -4.109375 Z M 1.21875 -0.890625 C 0.953125 -0.890625 0.71875 -0.65625 0.71875 -0.390625 C 0.71875 -0.125 0.953125 0.09375 1.203125 0.09375 C 1.484375 0.09375 1.71875 -0.125 1.71875 -0.390625 C 1.71875 -0.65625 1.484375 -0.890625 1.21875 -0.890625 Z M 1.21875 -0.890625 "/>
</g>
<g id="glyph-1-34">
<path d="M 1.734375 -4.09375 L 1.6875 -4.125 C 1.15625 -3.90625 0.8125 -3.796875 0.28125 -3.640625 L 0.28125 -3.484375 L 0.328125 -3.5 C 0.46875 -3.515625 0.59375 -3.53125 0.6875 -3.53125 C 0.890625 -3.53125 0.96875 -3.375 0.96875 -2.984375 L 0.96875 0.40625 C 0.96875 1.078125 0.953125 1.3125 0.84375 1.484375 C 0.796875 1.578125 0.671875 1.640625 0.546875 1.640625 C 0.40625 1.640625 0.328125 1.578125 0.171875 1.390625 C 0.015625 1.1875 -0.109375 1.109375 -0.265625 1.109375 C -0.46875 1.109375 -0.625 1.265625 -0.625 1.453125 C -0.625 1.75 -0.265625 1.953125 0.21875 1.953125 C 1.203125 1.953125 1.734375 1.265625 1.734375 0 Z M 1.265625 -6.109375 C 1.03125 -6.109375 0.828125 -5.90625 0.828125 -5.65625 C 0.828125 -5.40625 1.015625 -5.203125 1.265625 -5.203125 C 1.53125 -5.203125 1.734375 -5.40625 1.734375 -5.65625 C 1.734375 -5.90625 1.53125 -6.109375 1.265625 -6.109375 Z M 1.265625 -6.109375 "/>
</g>
<g id="glyph-2-0">
<path d="M 0.328125 -1.3125 L 0.140625 0.109375 L 0.28125 0.109375 C 0.359375 -0.03125 0.40625 -0.078125 0.5 -0.078125 C 0.59375 -0.078125 0.765625 -0.03125 0.9375 0.015625 C 1.140625 0.078125 1.296875 0.09375 1.4375 0.09375 C 2.1875 0.09375 2.71875 -0.390625 2.71875 -1.0625 C 2.71875 -1.40625 2.53125 -1.796875 2.109375 -2.3125 C 1.765625 -2.734375 1.625 -3.015625 1.625 -3.265625 C 1.625 -3.546875 1.8125 -3.75 2.125 -3.75 C 2.59375 -3.75 2.859375 -3.40625 2.953125 -2.71875 L 3.09375 -2.71875 L 3.28125 -3.953125 L 3.15625 -3.953125 C 3.078125 -3.828125 3.015625 -3.796875 2.890625 -3.796875 C 2.8125 -3.796875 2.734375 -3.8125 2.5625 -3.859375 C 2.34375 -3.9375 2.203125 -3.953125 2.0625 -3.953125 C 1.40625 -3.953125 0.96875 -3.5625 0.96875 -2.96875 C 0.96875 -2.671875 1.15625 -2.296875 1.546875 -1.8125 C 1.890625 -1.359375 2.046875 -1.03125 2.046875 -0.78125 C 2.046875 -0.375 1.765625 -0.09375 1.375 -0.09375 C 0.890625 -0.09375 0.609375 -0.453125 0.46875 -1.3125 Z M 0.328125 -1.3125 "/>
</g>
<g id="glyph-2-1">
<path d="M 5.671875 -5.84375 L 1.234375 -5.84375 L 1.234375 -5.703125 C 1.78125 -5.65625 1.921875 -5.578125 1.921875 -5.34375 C 1.921875 -5.234375 1.859375 -4.921875 1.8125 -4.765625 L 0.71875 -0.8125 C 0.5625 -0.296875 0.5 -0.234375 -0.015625 -0.140625 L -0.015625 0 L 4.53125 0 L 5.078125 -1.453125 L 4.9375 -1.515625 C 4.515625 -0.953125 4.28125 -0.71875 3.90625 -0.53125 C 3.578125 -0.390625 2.96875 -0.296875 2.296875 -0.296875 C 1.796875 -0.296875 1.578125 -0.390625 1.578125 -0.59375 C 1.578125 -0.703125 1.671875 -1.125 1.890625 -1.90625 C 2.015625 -2.296875 2.09375 -2.59375 2.1875 -2.9375 C 2.5 -2.921875 2.78125 -2.90625 2.890625 -2.90625 C 3.234375 -2.921875 3.484375 -2.859375 3.578125 -2.78125 C 3.625 -2.734375 3.640625 -2.65625 3.640625 -2.5 C 3.640625 -2.34375 3.625 -2.234375 3.578125 -2.03125 L 3.765625 -1.984375 L 4.375 -4.0625 L 4.203125 -4.09375 C 3.875 -3.34375 3.78125 -3.28125 2.96875 -3.25 C 2.859375 -3.25 2.578125 -3.234375 2.265625 -3.234375 L 2.859375 -5.3125 C 2.90625 -5.515625 3.015625 -5.546875 3.515625 -5.546875 C 4.921875 -5.546875 5.234375 -5.4375 5.234375 -4.890625 C 5.234375 -4.78125 5.21875 -4.640625 5.203125 -4.5 L 5.40625 -4.46875 Z M 5.671875 -5.84375 "/>
</g>
<g id="glyph-2-2">
<path d="M 4.140625 -1 C 3.65625 -0.4375 3.5625 -0.359375 3.40625 -0.359375 C 3.328125 -0.359375 3.25 -0.4375 3.25 -0.53125 C 3.25 -0.65625 3.53125 -1.75 3.828125 -2.734375 C 4.078125 -3.5625 4.265625 -4.28125 4.71875 -6.0625 L 4.671875 -6.109375 C 4.203125 -6.015625 3.875 -5.96875 3.296875 -5.90625 L 3.296875 -5.75 C 3.796875 -5.734375 3.859375 -5.71875 3.859375 -5.53125 C 3.859375 -5.40625 3.84375 -5.359375 3.71875 -4.890625 L 3.328125 -3.421875 C 3.265625 -3.8125 3.09375 -3.953125 2.75 -3.953125 C 1.578125 -3.953125 0.140625 -2.265625 0.140625 -0.921875 C 0.140625 -0.28125 0.5 0.09375 1.078125 0.09375 C 1.6875 0.09375 2.078125 -0.1875 2.6875 -1.078125 C 2.59375 -0.625 2.5625 -0.5 2.5625 -0.28125 C 2.5625 -0.046875 2.71875 0.109375 2.953125 0.109375 C 3.328125 0.109375 3.78125 -0.25 4.25 -0.90625 Z M 2.78125 -3.75 C 3.046875 -3.71875 3.1875 -3.546875 3.1875 -3.234375 C 3.1875 -1.875 2.25 -0.328125 1.4375 -0.328125 C 1.125 -0.328125 0.90625 -0.578125 0.90625 -0.921875 C 0.90625 -1.671875 1.359375 -2.703125 1.953125 -3.328125 C 2.203125 -3.59375 2.53125 -3.765625 2.78125 -3.75 Z M 2.78125 -3.75 "/>
</g>
<g id="glyph-2-3">
<path d="M 1.3125 -5.703125 C 1.8125 -5.640625 1.9375 -5.5625 1.9375 -5.328125 C 1.9375 -5.203125 1.90625 -5.015625 1.796875 -4.609375 L 0.734375 -0.8125 C 0.578125 -0.265625 0.515625 -0.21875 0 -0.140625 L 0 0 L 2.1875 0 L 2.1875 -0.140625 C 1.625 -0.21875 1.578125 -0.25 1.578125 -0.5625 C 1.578125 -0.65625 1.609375 -0.75 1.6875 -1.078125 L 2.171875 -2.796875 C 2.390625 -2.75 2.625 -2.734375 2.984375 -2.734375 C 3.71875 -2.734375 4.328125 -2.890625 4.703125 -3.15625 C 5.15625 -3.484375 5.421875 -3.984375 5.421875 -4.515625 C 5.421875 -5.375 4.75 -5.84375 3.53125 -5.84375 L 1.3125 -5.84375 Z M 2.890625 -5.328125 C 2.9375 -5.515625 3.046875 -5.578125 3.296875 -5.578125 C 3.640625 -5.578125 3.984375 -5.484375 4.15625 -5.359375 C 4.390625 -5.203125 4.5 -4.9375 4.5 -4.515625 C 4.5 -3.9375 4.28125 -3.515625 3.890625 -3.28125 C 3.609375 -3.140625 3.265625 -3.0625 2.71875 -3.0625 C 2.5625 -3.0625 2.484375 -3.078125 2.25 -3.109375 Z M 2.890625 -5.328125 "/>
</g>
<g id="glyph-3-0">
<path d="M 0.25 -1.015625 L 0.109375 0.09375 L 0.21875 0.09375 C 0.28125 -0.015625 0.328125 -0.0625 0.390625 -0.0625 C 0.46875 -0.0625 0.59375 -0.03125 0.734375 0 C 0.890625 0.0625 1 0.078125 1.109375 0.078125 C 1.703125 0.078125 2.125 -0.296875 2.125 -0.828125 C 2.125 -1.09375 1.96875 -1.40625 1.640625 -1.8125 C 1.375 -2.125 1.265625 -2.34375 1.265625 -2.53125 C 1.265625 -2.765625 1.421875 -2.90625 1.65625 -2.90625 C 2.015625 -2.90625 2.234375 -2.65625 2.296875 -2.109375 L 2.40625 -2.109375 L 2.546875 -3.078125 L 2.453125 -3.078125 C 2.390625 -2.984375 2.34375 -2.953125 2.25 -2.953125 C 2.1875 -2.953125 2.125 -2.96875 2 -3 C 1.8125 -3.0625 1.71875 -3.078125 1.609375 -3.078125 C 1.09375 -3.078125 0.765625 -2.78125 0.765625 -2.3125 C 0.765625 -2.078125 0.90625 -1.78125 1.203125 -1.40625 C 1.46875 -1.046875 1.59375 -0.8125 1.59375 -0.609375 C 1.59375 -0.296875 1.375 -0.0625 1.078125 -0.0625 C 0.6875 -0.0625 0.46875 -0.359375 0.359375 -1.015625 Z M 0.25 -1.015625 "/>
</g>
<g id="glyph-3-1">
<path d="M 3.203125 -0.8125 L 3.0625 -0.640625 C 2.859375 -0.375 2.734375 -0.265625 2.640625 -0.265625 C 2.578125 -0.265625 2.515625 -0.328125 2.515625 -0.375 C 2.515625 -0.421875 2.515625 -0.421875 2.625 -0.8125 L 3.015625 -2.25 C 3.046875 -2.390625 3.078125 -2.546875 3.078125 -2.640625 C 3.078125 -2.90625 2.890625 -3.078125 2.625 -3.078125 C 2.171875 -3.078125 1.734375 -2.65625 1.015625 -1.546875 L 1.484375 -3.0625 L 1.46875 -3.078125 C 1.09375 -3 0.9375 -2.96875 0.328125 -2.859375 L 0.328125 -2.75 C 0.6875 -2.734375 0.78125 -2.703125 0.78125 -2.5625 C 0.78125 -2.515625 0.78125 -2.46875 0.765625 -2.4375 L 0.09375 0 L 0.625 0 C 0.953125 -1.09375 1.015625 -1.25 1.3125 -1.734375 C 1.734375 -2.375 2.09375 -2.71875 2.34375 -2.71875 C 2.453125 -2.71875 2.515625 -2.640625 2.515625 -2.515625 C 2.515625 -2.4375 2.46875 -2.203125 2.421875 -1.984375 L 2.109375 -0.84375 C 2.015625 -0.484375 2 -0.390625 2 -0.3125 C 2 -0.046875 2.09375 0.0625 2.328125 0.0625 C 2.640625 0.0625 2.828125 -0.078125 3.296875 -0.71875 Z M 3.203125 -0.8125 "/>
</g>
<g id="glyph-4-0">
<path d="M 6.15625 -2.921875 C 6.28125 -2.921875 6.453125 -2.921875 6.453125 -3.109375 C 6.453125 -3.28125 6.28125 -3.28125 6.15625 -3.28125 L 0.796875 -3.28125 C 0.671875 -3.28125 0.5 -3.28125 0.5 -3.109375 C 0.5 -2.921875 0.671875 -2.921875 0.8125 -2.921875 Z M 6.15625 -1.1875 C 6.28125 -1.1875 6.453125 -1.1875 6.453125 -1.375 C 6.453125 -1.546875 6.28125 -1.546875 6.15625 -1.546875 L 0.8125 -1.546875 C 0.671875 -1.546875 0.5 -1.546875 0.5 -1.375 C 0.5 -1.1875 0.671875 -1.1875 0.796875 -1.1875 Z M 6.15625 -1.1875 "/>
</g>
<g id="glyph-4-1">
<path d="M 2.96875 2.15625 C 2.96875 2.125 2.96875 2.109375 2.8125 1.953125 C 1.6875 0.828125 1.40625 -0.875 1.40625 -2.234375 C 1.40625 -3.796875 1.75 -5.359375 2.84375 -6.46875 C 2.96875 -6.578125 2.96875 -6.59375 2.96875 -6.625 C 2.96875 -6.6875 2.921875 -6.71875 2.875 -6.71875 C 2.78125 -6.71875 1.984375 -6.109375 1.453125 -4.96875 C 1 -3.984375 0.890625 -2.984375 0.890625 -2.234375 C 0.890625 -1.546875 0.984375 -0.453125 1.484375 0.5625 C 2.015625 1.65625 2.78125 2.234375 2.875 2.234375 C 2.921875 2.234375 2.96875 2.21875 2.96875 2.15625 Z M 2.96875 2.15625 "/>
</g>
<g id="glyph-4-2">
<path d="M 2.59375 -2.234375 C 2.59375 -2.9375 2.484375 -4.015625 2 -5.03125 C 1.453125 -6.140625 0.6875 -6.71875 0.59375 -6.71875 C 0.546875 -6.71875 0.515625 -6.671875 0.515625 -6.625 C 0.515625 -6.59375 0.515625 -6.578125 0.6875 -6.421875 C 1.5625 -5.53125 2.0625 -4.109375 2.0625 -2.234375 C 2.0625 -0.703125 1.734375 0.875 0.625 2 C 0.515625 2.109375 0.515625 2.125 0.515625 2.15625 C 0.515625 2.203125 0.546875 2.234375 0.59375 2.234375 C 0.6875 2.234375 1.5 1.625 2.015625 0.5 C 2.484375 -0.5 2.59375 -1.484375 2.59375 -2.234375 Z M 2.59375 -2.234375 "/>
</g>
<g id="glyph-5-0">
<path d="M 1.8125 -0.015625 C 1.8125 -0.59375 1.59375 -0.953125 1.25 -0.953125 C 0.953125 -0.953125 0.765625 -0.71875 0.765625 -0.46875 C 0.765625 -0.234375 0.953125 0 1.25 0 C 1.359375 0 1.46875 -0.03125 1.5625 -0.109375 C 1.578125 -0.140625 1.59375 -0.140625 1.609375 -0.140625 C 1.609375 -0.140625 1.625 -0.140625 1.625 -0.015625 C 1.625 0.65625 1.3125 1.1875 1.015625 1.484375 C 0.90625 1.578125 0.90625 1.609375 0.90625 1.625 C 0.90625 1.6875 0.953125 1.734375 1 1.734375 C 1.09375 1.734375 1.8125 1.03125 1.8125 -0.015625 Z M 1.8125 -0.015625 "/>
</g>
<g id="glyph-6-0">
<path d="M 1.421875 -6.390625 C 1.421875 -6.546875 1.421875 -6.71875 1.25 -6.71875 C 1.0625 -6.71875 1.0625 -6.546875 1.0625 -6.390625 L 1.0625 1.921875 C 1.0625 2.078125 1.0625 2.234375 1.25 2.234375 C 1.421875 2.234375 1.421875 2.078125 1.421875 1.921875 Z M 1.421875 -6.390625 "/>
</g>
<g id="glyph-6-1">
<path d="M 2.4375 -2.09375 C 2.484375 -2.1875 2.484375 -2.21875 2.484375 -2.234375 C 2.484375 -2.265625 2.484375 -2.28125 2.4375 -2.390625 L 0.875 -6.515625 C 0.828125 -6.65625 0.765625 -6.71875 0.671875 -6.71875 C 0.578125 -6.71875 0.5 -6.640625 0.5 -6.53125 C 0.5 -6.515625 0.5 -6.484375 0.53125 -6.390625 L 2.125 -2.234375 L 0.53125 1.890625 C 0.5 2 0.5 2.015625 0.5 2.0625 C 0.5 2.15625 0.578125 2.234375 0.671875 2.234375 C 0.78125 2.234375 0.828125 2.15625 0.859375 2.0625 Z M 2.4375 -2.09375 "/>
</g>
<g id="glyph-6-2">
<path d="M 4.90625 -2.0625 C 5.0625 -2.0625 5.21875 -2.0625 5.21875 -2.234375 C 5.21875 -2.421875 5.0625 -2.421875 4.90625 -2.421875 L 1.109375 -2.421875 C 1.21875 -3.609375 2.25 -4.46875 3.515625 -4.46875 L 4.90625 -4.46875 C 5.0625 -4.46875 5.21875 -4.46875 5.21875 -4.65625 C 5.21875 -4.828125 5.0625 -4.828125 4.90625 -4.828125 L 3.484375 -4.828125 C 1.953125 -4.828125 0.75 -3.671875 0.75 -2.234375 C 0.75 -0.8125 1.953125 0.359375 3.484375 0.359375 L 4.90625 0.359375 C 5.0625 0.359375 5.21875 0.359375 5.21875 0.171875 C 5.21875 0 5.0625 0 4.90625 0 L 3.515625 0 C 2.25 0 1.21875 -0.859375 1.109375 -2.0625 Z M 4.90625 -2.0625 "/>
</g>
<g id="glyph-7-0">
<path d="M 4.234375 -4.46875 L 3.65625 -4.46875 L 2.96875 -0.359375 C 2.390625 -0.5 2.203125 -0.84375 2.28125 -1.6875 L 2.375 -3.203125 C 2.40625 -3.640625 2.390625 -3.8125 2.28125 -4.046875 C 2.140625 -4.375 1.796875 -4.59375 1.453125 -4.59375 C 1.28125 -4.59375 1.15625 -4.5625 0.859375 -4.46875 L 0.828125 -4.3125 C 1.390625 -4.203125 1.46875 -4.109375 1.4375 -3.46875 L 1.328125 -2.015625 C 1.234375 -0.953125 1.875 -0.125 2.90625 0.03125 L 2.578125 1.984375 L 3.15625 1.984375 L 3.484375 0.03125 C 4.546875 -0.125 5.46875 -0.953125 5.75 -2.015625 L 6.109375 -3.46875 C 6.28125 -4.09375 6.390625 -4.203125 7 -4.3125 L 7.03125 -4.46875 C 6.765625 -4.5625 6.625 -4.59375 6.46875 -4.59375 C 6.140625 -4.59375 5.765625 -4.40625 5.515625 -4.125 C 5.3125 -3.890625 5.1875 -3.6875 5.078125 -3.203125 L 4.65625 -1.6875 C 4.453125 -0.84375 4.15625 -0.5 3.546875 -0.359375 Z M 4.234375 -4.46875 "/>
</g>
<g id="glyph-7-1">
<path d="M 5.890625 -3.703125 L 6.015625 -4.46875 L 3.984375 -4.46875 C 3.28125 -4.46875 2.78125 -4.390625 2.328125 -4.21875 C 1.40625 -3.828125 0.78125 -3.125 0.65625 -2.296875 C 0.546875 -1.703125 0.6875 -1.125 1.015625 -0.65625 C 1.390625 -0.109375 1.859375 0.109375 2.578125 0.109375 C 3.1875 0.109375 3.734375 -0.078125 4.203125 -0.4375 C 4.671875 -0.8125 4.984375 -1.3125 5.0625 -1.796875 C 5.1875 -2.484375 4.78125 -3.15625 3.921875 -3.703125 Z M 3.515625 -3.703125 C 4.140625 -2.90625 4.25 -2.5625 4.140625 -1.828125 C 3.984375 -0.890625 3.421875 -0.265625 2.765625 -0.265625 C 1.9375 -0.265625 1.40625 -1.171875 1.578125 -2.28125 C 1.734375 -3.140625 2.390625 -3.703125 3.234375 -3.703125 Z M 3.515625 -3.703125 "/>
</g>
<g id="glyph-8-0">
<path d="M 1.296875 5.234375 C 1.296875 5.375 1.296875 5.5625 1.484375 5.5625 C 1.6875 5.5625 1.6875 5.375 1.6875 5.234375 L 1.6875 0.140625 C 1.6875 0 1.6875 -0.1875 1.5 -0.1875 C 1.296875 -0.1875 1.296875 -0.015625 1.296875 0.140625 Z M 1.296875 5.234375 "/>
</g>
<g id="glyph-8-1">
<path d="M 2.96875 5.015625 L 0.75 10.03125 C 0.703125 10.15625 0.703125 10.203125 0.703125 10.203125 C 0.703125 10.3125 0.78125 10.390625 0.875 10.390625 C 1 10.390625 1.015625 10.3125 1.078125 10.203125 L 3.28125 5.1875 C 3.34375 5.0625 3.34375 5.015625 3.34375 5.015625 C 3.34375 5 3.34375 4.953125 3.28125 4.84375 L 1.078125 -0.15625 C 1.015625 -0.296875 0.984375 -0.359375 0.875 -0.359375 C 0.78125 -0.359375 0.703125 -0.28125 0.703125 -0.171875 C 0.703125 -0.171875 0.703125 -0.125 0.75 -0.015625 Z M 2.96875 5.015625 "/>
</g>
<g id="glyph-9-0">
<path d="M 4.59375 -1.609375 C 4.703125 -1.609375 4.84375 -1.609375 4.84375 -1.734375 C 4.84375 -1.875 4.703125 -1.875 4.59375 -1.875 L 0.828125 -1.875 C 0.703125 -1.875 0.578125 -1.875 0.578125 -1.734375 C 0.578125 -1.609375 0.703125 -1.609375 0.828125 -1.609375 Z M 4.59375 -1.609375 "/>
</g>
<g id="glyph-10-0">
<path d="M 2.03125 -4.703125 L 0.78125 -4.078125 L 0.78125 -3.984375 C 0.859375 -4.015625 0.9375 -4.046875 0.96875 -4.0625 C 1.09375 -4.109375 1.203125 -4.125 1.28125 -4.125 C 1.421875 -4.125 1.484375 -4.03125 1.484375 -3.8125 L 1.484375 -0.640625 C 1.484375 -0.421875 1.421875 -0.265625 1.3125 -0.1875 C 1.21875 -0.125 1.109375 -0.109375 0.828125 -0.109375 L 0.828125 0 L 2.75 0 L 2.75 -0.109375 C 2.1875 -0.109375 2.078125 -0.1875 2.078125 -0.515625 L 2.078125 -4.703125 Z M 2.03125 -4.703125 "/>
</g>
<g id="glyph-11-0">
<path d="M 7.3125 -3.640625 C 7.140625 -3.640625 6.953125 -3.515625 6.8125 -3.40625 C 6.59375 -3.234375 6.4375 -3.046875 6.296875 -2.859375 L 6.203125 -2.703125 C 5.96875 -2.65625 5.734375 -2.625 5.53125 -2.625 C 5.71875 -3.09375 5.828125 -3.546875 6.171875 -4.03125 C 6.46875 -4.4375 6.828125 -4.859375 7.25 -5.234375 C 7.25 -5.25 7.265625 -5.265625 7.265625 -5.296875 L 7.25 -5.375 C 7.234375 -5.421875 7.203125 -5.4375 7.171875 -5.4375 C 7.15625 -5.4375 7.140625 -5.4375 7.140625 -5.421875 C 6.546875 -5.0625 6.046875 -4.609375 5.703125 -4.125 C 5.34375 -3.609375 5.078125 -3.09375 4.78125 -2.59375 C 4.40625 -2.5625 4 -2.5 3.5625 -2.359375 C 3.21875 -2.25 2.796875 -2.109375 2.5625 -1.796875 C 2.5625 -1.78125 2.5625 -1.765625 2.5625 -1.75 C 2.5625 -1.734375 2.5625 -1.703125 2.59375 -1.6875 C 2.609375 -1.6875 2.625 -1.6875 2.625 -1.6875 L 2.734375 -1.6875 C 2.75 -1.6875 2.78125 -1.6875 2.796875 -1.703125 C 2.96875 -1.953125 3.3125 -2.09375 3.65625 -2.203125 C 4 -2.3125 4.34375 -2.359375 4.65625 -2.390625 C 4.5625 -2.234375 4.453125 -2.078125 4.34375 -1.921875 C 3.65625 -0.953125 2.671875 0 1.890625 0 C 1.140625 0 0.5625 -0.15625 0.5625 -0.578125 C 0.5625 -0.65625 0.578125 -0.75 0.640625 -0.84375 C 0.703125 -0.765625 0.796875 -0.71875 0.90625 -0.71875 C 1.140625 -0.71875 1.40625 -0.890625 1.40625 -1.0625 C 1.40625 -1.296875 1.265625 -1.375 1.109375 -1.375 C 0.921875 -1.375 0.703125 -1.265625 0.59375 -1.109375 C 0.4375 -0.890625 0.359375 -0.6875 0.359375 -0.53125 C 0.359375 -0.015625 1.09375 0.203125 1.859375 0.203125 C 2.90625 0.203125 4.34375 -0.75 5.109375 -1.828125 C 5.25 -2.03125 5.359375 -2.234375 5.4375 -2.421875 C 5.640625 -2.421875 5.84375 -2.453125 6.0625 -2.484375 C 5.96875 -2.3125 5.875 -2.15625 5.828125 -1.984375 C 5.8125 -1.96875 5.8125 -1.953125 5.8125 -1.953125 C 5.8125 -1.9375 5.8125 -1.9375 5.828125 -1.921875 C 5.84375 -1.90625 5.84375 -1.890625 5.859375 -1.890625 C 5.875 -1.875 5.890625 -1.875 5.90625 -1.875 C 5.90625 -1.875 5.921875 -1.875 5.921875 -1.890625 L 6.421875 -2.09375 C 6.453125 -2.109375 6.46875 -2.125 6.46875 -2.15625 L 6.46875 -2.171875 C 6.453125 -2.203125 6.453125 -2.234375 6.453125 -2.265625 C 6.453125 -2.359375 6.484375 -2.46875 6.5625 -2.59375 C 6.875 -2.6875 7.28125 -2.796875 7.484375 -3.09375 C 7.5625 -3.1875 7.59375 -3.28125 7.59375 -3.390625 C 7.59375 -3.40625 7.59375 -3.421875 7.59375 -3.453125 C 7.5625 -3.578125 7.4375 -3.640625 7.3125 -3.640625 Z M 8.828125 -5.8125 C 8.8125 -5.828125 8.796875 -5.828125 8.78125 -5.828125 C 7.640625 -5.828125 7.0625 -6.515625 5.875 -6.515625 C 5.359375 -6.515625 4.734375 -6.34375 4.125 -6 C 3.546875 -5.671875 3.015625 -5.234375 2.671875 -4.75 C 2.4375 -4.40625 2.3125 -4.09375 2.3125 -3.8125 C 2.3125 -3.75 2.3125 -3.6875 2.328125 -3.625 C 2.40625 -3.3125 2.6875 -3.140625 3.09375 -3.140625 C 3.453125 -3.140625 3.859375 -3.203125 4.296875 -3.390625 C 4.625 -3.53125 4.984375 -3.75 5.171875 -4.03125 C 5.375 -4.328125 5.5 -4.625 5.5 -4.859375 C 5.5 -5.109375 5.375 -5.3125 5.140625 -5.421875 L 5.109375 -5.421875 C 5.09375 -5.421875 5.078125 -5.421875 5.0625 -5.40625 L 5.015625 -5.375 C 4.984375 -5.359375 4.984375 -5.34375 4.984375 -5.3125 C 4.984375 -5.296875 4.984375 -5.28125 4.984375 -5.265625 C 5.03125 -5.1875 5.046875 -5.09375 5.046875 -4.984375 C 5.046875 -4.75 4.9375 -4.4375 4.703125 -4.125 C 4.5625 -3.90625 4.3125 -3.6875 4.0625 -3.546875 C 3.71875 -3.390625 3.40625 -3.328125 3.125 -3.328125 C 2.796875 -3.328125 2.59375 -3.46875 2.546875 -3.6875 C 2.546875 -3.71875 2.546875 -3.765625 2.546875 -3.8125 C 2.546875 -4.03125 2.671875 -4.328125 2.890625 -4.65625 C 3.171875 -5.046875 3.625 -5.421875 4.109375 -5.65625 C 4.65625 -5.9375 5.171875 -6.015625 5.625 -6.015625 C 6.78125 -6.015625 7.34375 -5.328125 8.546875 -5.328125 C 8.5625 -5.328125 8.59375 -5.34375 8.59375 -5.359375 L 8.84375 -5.71875 C 8.859375 -5.71875 8.859375 -5.734375 8.859375 -5.75 C 8.859375 -5.78125 8.84375 -5.796875 8.828125 -5.8125 Z M 7.265625 -3.171875 C 7.140625 -3.015625 6.9375 -2.90625 6.6875 -2.828125 C 6.796875 -2.984375 6.9375 -3.171875 7.015625 -3.265625 C 7.125 -3.359375 7.21875 -3.4375 7.265625 -3.4375 C 7.328125 -3.4375 7.34375 -3.40625 7.375 -3.375 C 7.375 -3.328125 7.34375 -3.28125 7.265625 -3.171875 Z M 7.265625 -3.171875 "/>
</g>
<g id="glyph-12-0">
<path d="M 5.234375 -3.296875 L 5.359375 -3.984375 L 3.546875 -3.984375 C 2.921875 -3.984375 2.46875 -3.90625 2.078125 -3.75 C 1.234375 -3.40625 0.703125 -2.78125 0.578125 -2.046875 C 0.484375 -1.515625 0.609375 -1 0.90625 -0.578125 C 1.234375 -0.109375 1.65625 0.109375 2.28125 0.109375 C 2.828125 0.109375 3.328125 -0.0625 3.734375 -0.390625 C 4.15625 -0.71875 4.453125 -1.171875 4.515625 -1.609375 C 4.625 -2.203125 4.25 -2.8125 3.484375 -3.296875 Z M 3.109375 -3.296875 C 3.6875 -2.578125 3.78125 -2.28125 3.671875 -1.625 C 3.546875 -0.796875 3.046875 -0.234375 2.46875 -0.234375 C 1.734375 -0.234375 1.25 -1.046875 1.421875 -2.03125 C 1.546875 -2.78125 2.109375 -3.296875 2.859375 -3.296875 Z M 3.109375 -3.296875 "/>
</g>
<g id="glyph-13-0">
<path d="M 5.46875 -2.609375 C 5.59375 -2.609375 5.75 -2.609375 5.75 -2.765625 C 5.75 -2.921875 5.59375 -2.921875 5.484375 -2.921875 L 0.703125 -2.921875 C 0.59375 -2.921875 0.453125 -2.921875 0.453125 -2.765625 C 0.453125 -2.609375 0.59375 -2.609375 0.71875 -2.609375 Z M 5.484375 -1.0625 C 5.59375 -1.0625 5.75 -1.0625 5.75 -1.21875 C 5.75 -1.375 5.59375 -1.375 5.46875 -1.375 L 0.71875 -1.375 C 0.59375 -1.375 0.453125 -1.375 0.453125 -1.21875 C 0.453125 -1.0625 0.59375 -1.0625 0.703125 -1.0625 Z M 5.484375 -1.0625 "/>
</g>
<g id="glyph-14-0">
<path d="M 5.046875 -5.203125 L 1.09375 -5.203125 L 1.09375 -5.078125 C 1.578125 -5.03125 1.703125 -4.96875 1.703125 -4.75 C 1.703125 -4.65625 1.65625 -4.375 1.625 -4.234375 L 0.640625 -0.71875 C 0.5 -0.265625 0.4375 -0.203125 -0.015625 -0.125 L -0.015625 0 L 4.03125 0 L 4.53125 -1.296875 L 4.40625 -1.359375 C 4.03125 -0.84375 3.8125 -0.640625 3.46875 -0.484375 C 3.171875 -0.34375 2.640625 -0.265625 2.046875 -0.265625 C 1.59375 -0.265625 1.40625 -0.34375 1.40625 -0.53125 C 1.40625 -0.625 1.484375 -1 1.6875 -1.703125 C 1.796875 -2.046875 1.859375 -2.3125 1.9375 -2.609375 C 2.21875 -2.59375 2.46875 -2.59375 2.5625 -2.59375 C 2.875 -2.59375 3.09375 -2.546875 3.1875 -2.46875 C 3.234375 -2.4375 3.25 -2.359375 3.25 -2.21875 C 3.25 -2.09375 3.234375 -1.984375 3.1875 -1.8125 L 3.34375 -1.765625 L 3.890625 -3.625 L 3.75 -3.65625 C 3.4375 -2.96875 3.375 -2.921875 2.640625 -2.890625 C 2.546875 -2.890625 2.296875 -2.890625 2.015625 -2.875 L 2.546875 -4.734375 C 2.59375 -4.90625 2.671875 -4.9375 3.125 -4.9375 C 4.375 -4.9375 4.65625 -4.84375 4.65625 -4.359375 C 4.65625 -4.25 4.640625 -4.140625 4.640625 -4 L 4.8125 -3.984375 Z M 5.046875 -5.203125 "/>
</g>
</g>
<clipPath id="clip-0">
<path clip-rule="nonzero" d="M 210 0 L 412.519531 0 L 412.519531 190 L 210 190 Z M 210 0 "/>
</clipPath>
<clipPath id="clip-1">
<path clip-rule="nonzero" d="M 0.140625 52 L 93 52 L 93 92 L 0.140625 92 Z M 0.140625 52 "/>
</clipPath>
</defs>
<g clip-path="url(#clip-0)">
<path fill="none" stroke-width="0.3985" stroke-linecap="butt" stroke-linejoin="miter" stroke="rgb(33.332825%, 33.332825%, 33.332825%)" stroke-opacity="1" stroke-dasharray="2.98883 2.98883" stroke-miterlimit="10" d="M 360.220483 67.942615 L 173.399828 67.942615 C 171.749593 67.942615 170.412199 66.605221 170.412199 64.954987 L 170.412199 -108.81239 C 170.412199 -110.462625 171.749593 -111.800019 173.399828 -111.800019 L 360.220483 -111.800019 C 361.870718 -111.800019 363.208112 -110.462625 363.208112 -108.81239 L 363.208112 64.954987 C 363.208112 66.605221 361.870718 67.942615 360.220483 67.942615 Z M 360.220483 67.942615 " transform="matrix(0.998911, 0, 0, -0.998911, 45.531211, 72.048306)"/>
</g>
<g fill="rgb(33.299255%, 33.299255%, 33.299255%)" fill-opacity="1">
<use xlink:href="#glyph-0-0" x="282.863548" y="192.839158"/>
<use xlink:href="#glyph-0-1" x="285.960545" y="192.839158"/>
<use xlink:href="#glyph-0-2" x="289.941261" y="192.839158"/>
<use xlink:href="#glyph-0-3" x="293.476137" y="192.839158"/>
<use xlink:href="#glyph-0-4" x="296.127294" y="192.839158"/>
<use xlink:href="#glyph-0-5" x="299.662169" y="192.839158"/>
</g>
<g fill="rgb(33.299255%, 33.299255%, 33.299255%)" fill-opacity="1">
<use xlink:href="#glyph-0-6" x="305.633243" y="192.839158"/>
<use xlink:href="#glyph-0-7" x="309.168119" y="192.839158"/>
<use xlink:href="#glyph-0-8" x="311.381397" y="192.839158"/>
<use xlink:href="#glyph-0-9" x="315.362113" y="192.839158"/>
<use xlink:href="#glyph-0-5" x="319.342828" y="192.839158"/>
</g>
<g fill="rgb(33.299255%, 33.299255%, 33.299255%)" fill-opacity="1">
<use xlink:href="#glyph-0-10" x="325.313902" y="192.839158"/>
<use xlink:href="#glyph-0-11" x="331.062056" y="192.839158"/>
<use xlink:href="#glyph-0-12" x="335.488612" y="192.839158"/>
</g>
<path fill-rule="nonzero" fill="rgb(86.74469%, 94.117737%, 98.272705%)" fill-opacity="1" d="M 84.753906 57.890625 L 6.308594 57.890625 C 5.210938 57.890625 4.320312 58.78125 4.320312 59.878906 L 4.320312 84.214844 C 4.320312 85.316406 5.210938 86.207031 6.308594 86.207031 L 84.753906 86.207031 C 85.851562 86.207031 86.742188 85.316406 86.742188 84.214844 L 86.742188 59.878906 C 86.742188 58.78125 85.851562 57.890625 84.753906 57.890625 Z M 84.753906 57.890625 "/>
<g clip-path="url(#clip-1)">
<path fill="none" stroke-width="0.3985" stroke-linecap="butt" stroke-linejoin="miter" stroke="rgb(0%, 44.706726%, 69.802856%)" stroke-opacity="1" stroke-miterlimit="10" d="M 39.26546 14.173117 L -39.265382 14.173117 C -40.364235 14.173117 -41.255831 13.281521 -41.255831 12.182668 L -41.255831 -12.179803 C -41.255831 -13.282566 -40.364235 -14.174162 -39.265382 -14.174162 L 39.26546 -14.174162 C 40.364313 -14.174162 41.255909 -13.282566 41.255909 -12.179803 L 41.255909 12.182668 C 41.255909 13.281521 40.364313 14.173117 39.26546 14.173117 Z M 39.26546 14.173117 " transform="matrix(0.998911, 0, 0, -0.998911, 45.531211, 72.048306)"/>
</g>
<g fill="rgb(0%, 0%, 0%)" fill-opacity="1">
<use xlink:href="#glyph-1-0" x="33.59038" y="69.566302"/>
<use xlink:href="#glyph-1-1" x="38.570256" y="69.566302"/>
<use xlink:href="#glyph-1-1" x="42.546991" y="69.566302"/>
<use xlink:href="#glyph-1-2" x="46.523726" y="69.566302"/>
</g>
<g fill="rgb(0%, 0%, 0%)" fill-opacity="1">
<use xlink:href="#glyph-2-0" x="53.987112" y="69.566302"/>
</g>
<g fill="rgb(0%, 0%, 0%)" fill-opacity="1">
<use xlink:href="#glyph-1-3" x="15.29221" y="80.513267"/>
</g>
<g fill="rgb(0%, 0%, 0%)" fill-opacity="1">
<use xlink:href="#glyph-1-4" x="19.546601" y="80.513267"/>
<use xlink:href="#glyph-1-5" x="23.523336" y="80.513267"/>
<use xlink:href="#glyph-1-6" x="26.013273" y="80.513267"/>
<use xlink:href="#glyph-1-2" x="28.503211" y="80.513267"/>
<use xlink:href="#glyph-1-4" x="32.981516" y="80.513267"/>
<use xlink:href="#glyph-1-7" x="36.958252" y="80.513267"/>
<use xlink:href="#glyph-1-1" x="39.448189" y="80.513267"/>
<use xlink:href="#glyph-1-2" x="43.424925" y="80.513267"/>
</g>
<g fill="rgb(0%, 0%, 0%)" fill-opacity="1">
<use xlink:href="#glyph-1-8" x="50.885781" y="80.513267"/>
<use xlink:href="#glyph-1-9" x="57.352454" y="80.513267"/>
<use xlink:href="#glyph-1-10" x="63.326513" y="80.513267"/>
<use xlink:href="#glyph-1-11" x="69.300573" y="80.513267"/>
</g>
<path fill-rule="nonzero" fill="rgb(86.74469%, 94.117737%, 98.272705%)" fill-opacity="1" stroke-width="0.3985" stroke-linecap="butt" stroke-linejoin="miter" stroke="rgb(0%, 44.706726%, 69.802856%)" stroke-opacity="1" stroke-miterlimit="10" d="M 139.186785 14.173117 L 60.655944 14.173117 C 59.557091 14.173117 58.665495 13.281521 58.665495 12.182668 L 58.665495 -12.179803 C 58.665495 -13.282566 59.557091 -14.174162 60.655944 -14.174162 L 139.186785 -14.174162 C 140.285638 -14.174162 141.177234 -13.282566 141.177234 -12.179803 L 141.177234 12.182668 C 141.177234 13.281521 140.285638 14.173117 139.186785 14.173117 Z M 139.186785 14.173117 " transform="matrix(0.998911, 0, 0, -0.998911, 45.531211, 72.048306)"/>
<g fill="rgb(0%, 0%, 0%)" fill-opacity="1">
<use xlink:href="#glyph-1-12" x="121.216741" y="68.491454"/>
<use xlink:href="#glyph-1-0" x="127.683414" y="68.491454"/>
<use xlink:href="#glyph-1-13" x="132.66329" y="68.491454"/>
</g>
<g fill="rgb(0%, 0%, 0%)" fill-opacity="1">
<use xlink:href="#glyph-1-1" x="141.11833" y="68.491454"/>
<use xlink:href="#glyph-1-14" x="145.095065" y="68.491454"/>
<use xlink:href="#glyph-1-15" x="149.573371" y="68.491454"/>
<use xlink:href="#glyph-1-16" x="153.550106" y="68.491454"/>
<use xlink:href="#glyph-1-2" x="158.028411" y="68.491454"/>
<use xlink:href="#glyph-1-1" x="162.506716" y="68.491454"/>
<use xlink:href="#glyph-1-17" x="166.483452" y="68.491454"/>
</g>
<g fill="rgb(0%, 0%, 0%)" fill-opacity="1">
<use xlink:href="#glyph-2-1" x="116.580057" y="79.438419"/>
</g>
<g fill="rgb(0%, 0%, 0%)" fill-opacity="1">
<use xlink:href="#glyph-3-0" x="122.05254" y="80.781904"/>
</g>
<g fill="rgb(0%, 0%, 0%)" fill-opacity="1">
<use xlink:href="#glyph-4-0" x="127.644603" y="79.438419"/>
</g>
<g fill="rgb(0%, 0%, 0%)" fill-opacity="1">
<use xlink:href="#glyph-1-12" x="137.212371" y="79.438419"/>
</g>
<g fill="rgb(0%, 0%, 0%)" fill-opacity="1">
<use xlink:href="#glyph-1-0" x="144.126875" y="79.438419"/>
</g>
<g fill="rgb(0%, 0%, 0%)" fill-opacity="1">
<use xlink:href="#glyph-1-13" x="149.554581" y="79.438419"/>
</g>
<g fill="rgb(0%, 0%, 0%)" fill-opacity="1">
<use xlink:href="#glyph-4-1" x="155.250884" y="79.438419"/>
</g>
<g fill="rgb(0%, 0%, 0%)" fill-opacity="1">
<use xlink:href="#glyph-2-0" x="158.725945" y="79.438419"/>
</g>
<g fill="rgb(0%, 0%, 0%)" fill-opacity="1">
<use xlink:href="#glyph-5-0" x="162.209987" y="79.438419"/>
</g>
<g fill="rgb(0%, 0%, 0%)" fill-opacity="1">
<use xlink:href="#glyph-2-2" x="165.686057" y="79.438419"/>
</g>
<g fill="rgb(0%, 0%, 0%)" fill-opacity="1">
<use xlink:href="#glyph-4-2" x="170.630016" y="79.438419"/>
</g>
<path fill-rule="nonzero" fill="rgb(100%, 100%, 100%)" fill-opacity="1" stroke-width="0.3985" stroke-linecap="butt" stroke-linejoin="miter" stroke="rgb(0%, 0%, 0%)" stroke-opacity="1" stroke-miterlimit="10" d="M 256.114914 14.173117 L 177.584072 14.173117 C 176.485219 14.173117 175.593623 13.281521 175.593623 12.182668 L 175.593623 -12.179803 C 175.593623 -13.282566 176.485219 -14.174162 177.584072 -14.174162 L 256.114914 -14.174162 C 257.213767 -14.174162 258.105363 -13.282566 258.105363 -12.179803 L 258.105363 12.182668 C 258.105363 13.281521 257.213767 14.173117 256.114914 14.173117 Z M 256.114914 14.173117 " transform="matrix(0.998911, 0, 0, -0.998911, 45.531211, 72.048306)"/>
<g fill="rgb(0%, 0%, 0%)" fill-opacity="1">
<use xlink:href="#glyph-1-13" x="248.713562" y="68.043612"/>
<use xlink:href="#glyph-1-14" x="254.186051" y="68.043612"/>
<use xlink:href="#glyph-1-15" x="258.664356" y="68.043612"/>
<use xlink:href="#glyph-1-16" x="262.641092" y="68.043612"/>
<use xlink:href="#glyph-1-2" x="267.119397" y="68.043612"/>
<use xlink:href="#glyph-1-1" x="271.597702" y="68.043612"/>
</g>
<g fill="rgb(0%, 0%, 0%)" fill-opacity="1">
<use xlink:href="#glyph-2-1" x="235.127185" y="78.990577"/>
</g>
<g fill="rgb(0%, 0%, 0%)" fill-opacity="1">
<use xlink:href="#glyph-3-0" x="240.599669" y="80.334062"/>
</g>
<g fill="rgb(0%, 0%, 0%)" fill-opacity="1">
<use xlink:href="#glyph-4-1" x="243.807062" y="78.990577"/>
</g>
<g fill="rgb(0%, 0%, 0%)" fill-opacity="1">
<use xlink:href="#glyph-6-0" x="247.282123" y="78.954736"/>
</g>
<g fill="rgb(0%, 0%, 0%)" fill-opacity="1">
<use xlink:href="#glyph-7-0" x="249.763018" y="78.990577"/>
</g>
<g fill="rgb(0%, 0%, 0%)" fill-opacity="1">
<use xlink:href="#glyph-6-1" x="256.650608" y="78.954736"/>
</g>
<g fill="rgb(0%, 0%, 0%)" fill-opacity="1">
<use xlink:href="#glyph-8-0" x="261.120824" y="71.377457"/>
</g>
<g fill="rgb(0%, 0%, 0%)" fill-opacity="1">
<use xlink:href="#glyph-8-0" x="261.120824" y="76.751418"/>
</g>
<g fill="rgb(0%, 0%, 0%)" fill-opacity="1">
<use xlink:href="#glyph-1-18" x="264.103343" y="78.990567"/>
</g>
<g fill="rgb(0%, 0%, 0%)" fill-opacity="1">
<use xlink:href="#glyph-3-1" x="268.58165" y="75.739422"/>
</g>
<g fill="rgb(0%, 0%, 0%)" fill-opacity="1">
<use xlink:href="#glyph-9-0" x="272.064772" y="75.739422"/>
</g>
<g fill="rgb(0%, 0%, 0%)" fill-opacity="1">
<use xlink:href="#glyph-10-0" x="277.477481" y="75.739422"/>
</g>
<g fill="rgb(0%, 0%, 0%)" fill-opacity="1">
<use xlink:href="#glyph-8-1" x="281.458181" y="71.731202"/>
</g>
<g fill="rgb(0%, 0%, 0%)" fill-opacity="1">
<use xlink:href="#glyph-4-2" x="285.685671" y="78.990557"/>
</g>
<path fill-rule="nonzero" fill="rgb(100%, 100%, 100%)" fill-opacity="1" stroke-width="0.3985" stroke-linecap="butt" stroke-linejoin="miter" stroke="rgb(0%, 0%, 0%)" stroke-opacity="1" stroke-miterlimit="10" d="M 356.036239 14.173117 L 277.505398 14.173117 C 276.406545 14.173117 275.511038 13.281521 275.511038 12.182668 L 275.511038 -12.179803 C 275.511038 -13.282566 276.406545 -14.174162 277.505398 -14.174162 L 356.036239 -14.174162 C 357.135092 -14.174162 358.026688 -13.282566 358.026688 -12.179803 L 358.026688 12.182668 C 358.026688 13.281521 357.135092 14.173117 356.036239 14.173117 Z M 356.036239 14.173117 " transform="matrix(0.998911, 0, 0, -0.998911, 45.531211, 72.048306)"/>
<g fill="rgb(0%, 0%, 0%)" fill-opacity="1">
<use xlink:href="#glyph-1-19" x="337.005967" y="69.436434"/>
</g>
<g fill="rgb(0%, 0%, 0%)" fill-opacity="1">
<use xlink:href="#glyph-1-4" x="341.86045" y="69.436434"/>
<use xlink:href="#glyph-1-20" x="345.837185" y="69.436434"/>
<use xlink:href="#glyph-1-5" x="350.315491" y="69.436434"/>
<use xlink:href="#glyph-1-7" x="352.805428" y="69.436434"/>
</g>
<g fill="rgb(0%, 0%, 0%)" fill-opacity="1">
<use xlink:href="#glyph-1-21" x="358.268961" y="69.436434"/>
<use xlink:href="#glyph-1-6" x="364.735634" y="69.436434"/>
<use xlink:href="#glyph-1-14" x="367.225571" y="69.436434"/>
<use xlink:href="#glyph-1-2" x="371.703877" y="69.436434"/>
<use xlink:href="#glyph-1-16" x="376.182182" y="69.436434"/>
</g>
<g fill="rgb(0%, 0%, 0%)" fill-opacity="1">
<use xlink:href="#glyph-1-21" x="380.445529" y="69.436434"/>
</g>
<g fill="rgb(0%, 0%, 0%)" fill-opacity="1">
<use xlink:href="#glyph-2-3" x="348.593553" y="80.383398"/>
</g>
<g fill="rgb(0%, 0%, 0%)" fill-opacity="1">
<use xlink:href="#glyph-6-2" x="357.092377" y="80.383398"/>
</g>
<g fill="rgb(0%, 0%, 0%)" fill-opacity="1">
<use xlink:href="#glyph-11-0" x="366.083744" y="80.383398"/>
</g>
<path fill-rule="nonzero" fill="rgb(97.529602%, 90.52887%, 84.999084%)" fill-opacity="1" stroke-width="0.3985" stroke-linecap="butt" stroke-linejoin="miter" stroke="rgb(83.529663%, 36.863708%, 0%)" stroke-opacity="1" stroke-miterlimit="10" d="M 356.036239 62.761191 L 277.505398 62.761191 C 276.406545 62.761191 275.511038 61.869595 275.511038 60.770742 L 275.511038 36.408271 C 275.511038 35.305508 276.406545 34.413911 277.505398 34.413911 L 356.036239 34.413911 C 357.135092 34.413911 358.026688 35.305508 358.026688 36.408271 L 358.026688 60.770742 C 358.026688 61.869595 357.135092 62.761191 356.036239 62.761191 Z M 356.036239 62.761191 " transform="matrix(0.998911, 0, 0, -0.998911, 45.531211, 72.048306)"/>
<g fill="rgb(0%, 0%, 0%)" fill-opacity="1">
<use xlink:href="#glyph-1-22" x="325.461035" y="20.106368"/>
<use xlink:href="#glyph-1-16" x="331.435094" y="20.106368"/>
<use xlink:href="#glyph-1-23" x="335.913399" y="20.106368"/>
<use xlink:href="#glyph-1-7" x="338.895951" y="20.106368"/>
<use xlink:href="#glyph-1-1" x="341.385888" y="20.106368"/>
<use xlink:href="#glyph-1-14" x="345.362623" y="20.106368"/>
<use xlink:href="#glyph-1-4" x="349.840929" y="20.106368"/>
<use xlink:href="#glyph-1-14" x="353.817664" y="20.106368"/>
<use xlink:href="#glyph-1-7" x="358.295969" y="20.106368"/>
</g>
<g fill="rgb(0%, 0%, 0%)" fill-opacity="1">
<use xlink:href="#glyph-1-4" x="363.768458" y="20.106368"/>
<use xlink:href="#glyph-1-2" x="367.745193" y="20.106368"/>
<use xlink:href="#glyph-1-3" x="372.223499" y="20.106368"/>
</g>
<g fill="rgb(0%, 0%, 0%)" fill-opacity="1">
<use xlink:href="#glyph-1-1" x="376.576411" y="20.106368"/>
<use xlink:href="#glyph-1-17" x="380.553147" y="20.106368"/>
<use xlink:href="#glyph-1-24" x="383.535698" y="20.106368"/>
<use xlink:href="#glyph-1-4" x="387.019819" y="20.106368"/>
<use xlink:href="#glyph-1-17" x="390.996555" y="20.106368"/>
<use xlink:href="#glyph-1-25" x="393.979106" y="20.106368"/>
</g>
<g fill="rgb(0%, 0%, 0%)" fill-opacity="1">
<use xlink:href="#glyph-1-21" x="331.175314" y="31.053333"/>
<use xlink:href="#glyph-1-1" x="337.641987" y="31.053333"/>
<use xlink:href="#glyph-1-6" x="341.618722" y="31.053333"/>
<use xlink:href="#glyph-1-26" x="344.10866" y="31.053333"/>
<use xlink:href="#glyph-1-27" x="348.586965" y="31.053333"/>
<use xlink:href="#glyph-1-7" x="353.065271" y="31.053333"/>
<use xlink:href="#glyph-1-23" x="355.555208" y="31.053333"/>
<use xlink:href="#glyph-1-16" x="358.53776" y="31.053333"/>
<use xlink:href="#glyph-1-14" x="363.016065" y="31.053333"/>
<use xlink:href="#glyph-1-1" x="367.49437" y="31.053333"/>
</g>
<g fill="rgb(0%, 0%, 0%)" fill-opacity="1">
<use xlink:href="#glyph-1-28" x="374.453657" y="31.053333"/>
</g>
<g fill="rgb(0%, 0%, 0%)" fill-opacity="1">
<use xlink:href="#glyph-1-4" x="379.30814" y="31.053333"/>
<use xlink:href="#glyph-1-20" x="383.284875" y="31.053333"/>
<use xlink:href="#glyph-1-5" x="387.76318" y="31.053333"/>
<use xlink:href="#glyph-1-6" x="390.253118" y="31.053333"/>
</g>
<path fill-rule="nonzero" fill="rgb(100%, 100%, 100%)" fill-opacity="1" stroke-width="0.3985" stroke-linecap="butt" stroke-linejoin="miter" stroke="rgb(0%, 0%, 0%)" stroke-opacity="1" stroke-miterlimit="10" d="M 356.036239 -40.085195 L 277.505398 -40.085195 C 276.406545 -40.085195 275.511038 -40.976791 275.511038 -42.075644 L 275.511038 -66.438115 C 275.511038 -67.536968 276.406545 -68.432474 277.505398 -68.432474 L 356.036239 -68.432474 C 357.135092 -68.432474 358.026688 -67.536968 358.026688 -66.438115 L 358.026688 -42.075644 C 358.026688 -40.976791 357.135092 -40.085195 356.036239 -40.085195 Z M 356.036239 -40.085195 " transform="matrix(0.998911, 0, 0, -0.998911, 45.531211, 72.048306)"/>
<g fill="rgb(0%, 0%, 0%)" fill-opacity="1">
<use xlink:href="#glyph-1-0" x="343.545567" y="123.717571"/>
<use xlink:href="#glyph-1-25" x="348.525443" y="123.717571"/>
<use xlink:href="#glyph-1-14" x="353.003748" y="123.717571"/>
<use xlink:href="#glyph-1-2" x="357.482053" y="123.717571"/>
<use xlink:href="#glyph-1-17" x="361.960359" y="123.717571"/>
<use xlink:href="#glyph-1-16" x="364.94291" y="123.717571"/>
<use xlink:href="#glyph-1-29" x="369.421215" y="123.717571"/>
<use xlink:href="#glyph-1-1" x="376.389458" y="123.717571"/>
</g>
<g fill="rgb(0%, 0%, 0%)" fill-opacity="1">
<use xlink:href="#glyph-1-1" x="339.437766" y="134.664536"/>
</g>
<g fill="rgb(0%, 0%, 0%)" fill-opacity="1">
<use xlink:href="#glyph-1-30" x="343.289108" y="134.664536"/>
<use xlink:href="#glyph-1-7" x="347.767414" y="134.664536"/>
<use xlink:href="#glyph-1-17" x="350.257351" y="134.664536"/>
<use xlink:href="#glyph-1-4" x="353.239903" y="134.664536"/>
<use xlink:href="#glyph-1-15" x="357.216638" y="134.664536"/>
<use xlink:href="#glyph-1-7" x="361.193373" y="134.664536"/>
<use xlink:href="#glyph-1-6" x="363.683311" y="134.664536"/>
<use xlink:href="#glyph-1-16" x="366.173249" y="134.664536"/>
<use xlink:href="#glyph-1-14" x="370.651554" y="134.664536"/>
</g>
<g fill="rgb(0%, 0%, 0%)" fill-opacity="1">
<use xlink:href="#glyph-7-1" x="378.105756" y="134.664536"/>
</g>
<path fill-rule="nonzero" fill="rgb(100%, 100%, 100%)" fill-opacity="1" stroke-width="0.3985" stroke-linecap="butt" stroke-linejoin="miter" stroke="rgb(0%, 0%, 0%)" stroke-opacity="1" stroke-miterlimit="10" d="M 252.353004 -54.256879 L 231.662501 -44.895121 L 210.971998 -54.256879 L 231.662501 -63.618638 Z M 252.353004 -54.256879 " transform="matrix(0.998911, 0, 0, -0.998911, 45.531211, 72.048306)"/>
<g fill="rgb(0%, 0%, 0%)" fill-opacity="1">
<use xlink:href="#glyph-12-0" x="265.49097" y="128.86397"/>
</g>
<g fill="rgb(0%, 0%, 0%)" fill-opacity="1">
<use xlink:href="#glyph-13-0" x="272.920639" y="128.86397"/>
</g>
<g fill="rgb(0%, 0%, 0%)" fill-opacity="1">
<use xlink:href="#glyph-0-13" x="280.875796" y="128.86397"/>
<use xlink:href="#glyph-0-14" x="284.856512" y="128.86397"/>
</g>
<path fill-rule="nonzero" fill="rgb(86.74469%, 94.117737%, 98.272705%)" fill-opacity="1" stroke-width="0.3985" stroke-linecap="butt" stroke-linejoin="miter" stroke="rgb(0%, 44.706726%, 69.802856%)" stroke-opacity="1" stroke-miterlimit="10" d="M 151.802087 -40.085195 L 73.275156 -40.085195 C 72.172393 -40.085195 71.280797 -40.976791 71.280797 -42.075644 L 71.280797 -66.438115 C 71.280797 -67.536968 72.172393 -68.432474 73.275156 -68.432474 L 151.802087 -68.432474 C 152.90485 -68.432474 153.796446 -67.536968 153.796446 -66.438115 L 153.796446 -42.075644 C 153.796446 -40.976791 152.90485 -40.085195 151.802087 -40.085195 Z M 151.802087 -40.085195 " transform="matrix(0.998911, 0, 0, -0.998911, 45.531211, 72.048306)"/>
<g fill="rgb(0%, 0%, 0%)" fill-opacity="1">
<use xlink:href="#glyph-1-31" x="144.01941" y="122.839828"/>
<use xlink:href="#glyph-1-15" x="150.486083" y="122.839828"/>
<use xlink:href="#glyph-1-15" x="154.462818" y="122.839828"/>
<use xlink:href="#glyph-1-1" x="158.439553" y="122.839828"/>
<use xlink:href="#glyph-1-32" x="162.416288" y="122.839828"/>
<use xlink:href="#glyph-1-7" x="166.894593" y="122.839828"/>
<use xlink:href="#glyph-1-33" x="169.384531" y="122.839828"/>
</g>
<g fill="rgb(0%, 0%, 0%)" fill-opacity="1">
<use xlink:href="#glyph-1-5" x="132.817933" y="133.786793"/>
<use xlink:href="#glyph-1-16" x="135.30787" y="133.786793"/>
<use xlink:href="#glyph-1-26" x="139.786176" y="133.786793"/>
<use xlink:href="#glyph-1-6" x="144.264481" y="133.786793"/>
<use xlink:href="#glyph-1-15" x="146.754419" y="133.786793"/>
<use xlink:href="#glyph-1-4" x="150.731154" y="133.786793"/>
<use xlink:href="#glyph-1-5" x="154.707889" y="133.786793"/>
</g>
<g fill="rgb(0%, 0%, 0%)" fill-opacity="1">
<use xlink:href="#glyph-1-16" x="160.180378" y="133.786793"/>
<use xlink:href="#glyph-1-20" x="164.658683" y="133.786793"/>
<use xlink:href="#glyph-1-7" x="169.136989" y="133.786793"/>
<use xlink:href="#glyph-1-32" x="171.626927" y="133.786793"/>
<use xlink:href="#glyph-1-20" x="176.105232" y="133.786793"/>
<use xlink:href="#glyph-1-7" x="180.583537" y="133.786793"/>
</g>
<path fill-rule="nonzero" fill="rgb(100%, 100%, 100%)" fill-opacity="1" stroke-width="0.3985" stroke-linecap="butt" stroke-linejoin="miter" stroke="rgb(0%, 0%, 0%)" stroke-opacity="1" stroke-miterlimit="10" d="M 263.842079 -83.941553 L 199.482923 -83.941553 C 198.38407 -83.941553 197.492474 -84.833149 197.492474 -85.935913 L 197.492474 -104.628145 C 197.492474 -105.726998 198.38407 -106.618595 199.482923 -106.618595 L 263.842079 -106.618595 C 264.940932 -106.618595 265.832528 -105.726998 265.832528 -104.628145 L 265.832528 -85.935913 C 265.832528 -84.833149 264.940932 -83.941553 263.842079 -83.941553 Z M 263.842079 -83.941553 " transform="matrix(0.998911, 0, 0, -0.998911, 45.531211, 72.048306)"/>
<g fill="rgb(0%, 0%, 0%)" fill-opacity="1">
<use xlink:href="#glyph-1-9" x="249.081811" y="169.291682"/>
<use xlink:href="#glyph-1-1" x="255.05587" y="169.291682"/>
<use xlink:href="#glyph-1-34" x="259.032605" y="169.291682"/>
<use xlink:href="#glyph-1-1" x="261.522543" y="169.291682"/>
<use xlink:href="#glyph-1-15" x="265.499278" y="169.291682"/>
<use xlink:href="#glyph-1-7" x="269.476013" y="169.291682"/>
<use xlink:href="#glyph-1-33" x="271.965951" y="169.291682"/>
</g>
<g fill="rgb(0%, 0%, 0%)" fill-opacity="1">
<use xlink:href="#glyph-1-2" x="278.934194" y="169.291682"/>
<use xlink:href="#glyph-1-6" x="283.412499" y="169.291682"/>
<use xlink:href="#glyph-1-24" x="285.902437" y="169.291682"/>
<use xlink:href="#glyph-1-15" x="289.386558" y="169.291682"/>
<use xlink:href="#glyph-1-4" x="293.363294" y="169.291682"/>
<use xlink:href="#glyph-1-17" x="297.340029" y="169.291682"/>
<use xlink:href="#glyph-1-2" x="300.32258" y="169.291682"/>
</g>
<path fill="none" stroke-width="0.79701" stroke-linecap="butt" stroke-linejoin="miter" stroke="rgb(0%, 0%, 0%)" stroke-opacity="1" stroke-miterlimit="10" d="M 41.455345 0.00143255 L 52.627669 0.00143255 " transform="matrix(0.998911, 0, 0, -0.998911, 45.531211, 72.048306)"/>
<path fill-rule="nonzero" fill="rgb(0%, 0%, 0%)" fill-opacity="1" stroke-width="0.79701" stroke-linecap="butt" stroke-linejoin="miter" stroke="rgb(0%, 0%, 0%)" stroke-opacity="1" stroke-miterlimit="10" d="M 4.193144 0.00143255 C 3.680868 0.126569 1.416683 0.853924 0.00107875 1.643846 L 0.00107875 -1.644892 C 1.416683 -0.854969 3.680868 -0.127614 4.193144 0.00143255 Z M 4.193144 0.00143255 " transform="matrix(0.998911, 0, 0, -0.998911, 98.100485, 72.048306)"/>
<path fill="none" stroke-width="0.79701" stroke-linecap="butt" stroke-linejoin="miter" stroke="rgb(0%, 0%, 0%)" stroke-opacity="1" stroke-miterlimit="10" d="M 141.37667 0.00143255 L 169.555797 0.00143255 " transform="matrix(0.998911, 0, 0, -0.998911, 45.531211, 72.048306)"/>
<path fill-rule="nonzero" fill="rgb(0%, 0%, 0%)" fill-opacity="1" stroke-width="0.79701" stroke-linecap="butt" stroke-linejoin="miter" stroke="rgb(0%, 0%, 0%)" stroke-opacity="1" stroke-miterlimit="10" d="M 4.196464 0.00143255 C 3.680276 0.126569 1.416092 0.853924 0.00048747 1.643846 L 0.00048747 -1.644892 C 1.416092 -0.854969 3.680276 -0.127614 4.196464 0.00143255 Z M 4.196464 0.00143255 " transform="matrix(0.998911, 0, 0, -0.998911, 214.901857, 72.048306)"/>
<path fill="none" stroke-width="0.79701" stroke-linecap="butt" stroke-linejoin="miter" stroke="rgb(0%, 0%, 0%)" stroke-opacity="1" stroke-miterlimit="10" d="M 258.304799 0.00143255 L 269.477123 0.00143255 " transform="matrix(0.998911, 0, 0, -0.998911, 45.531211, 72.048306)"/>
<path fill-rule="nonzero" fill="rgb(0%, 0%, 0%)" fill-opacity="1" stroke-width="0.79701" stroke-linecap="butt" stroke-linejoin="miter" stroke="rgb(0%, 0%, 0%)" stroke-opacity="1" stroke-miterlimit="10" d="M 4.193218 0.00143255 C 3.680942 0.126569 1.416757 0.853924 0.00115268 1.643846 L 0.00115268 -1.644892 C 1.416757 -0.854969 3.680942 -0.127614 4.193218 0.00143255 Z M 4.193218 0.00143255 " transform="matrix(0.998911, 0, 0, -0.998911, 314.713692, 72.048306)"/>
<path fill="none" stroke-width="0.79701" stroke-linecap="butt" stroke-linejoin="miter" stroke="rgb(83.499146%, 36.898804%, 0%)" stroke-opacity="1" stroke-miterlimit="10" d="M 316.770818 34.214476 L 316.770818 20.210943 " transform="matrix(0.998911, 0, 0, -0.998911, 45.531211, 72.048306)"/>
<path fill-rule="nonzero" fill="rgb(83.499146%, 36.898804%, 0%)" fill-opacity="1" stroke-width="0.79701" stroke-linecap="butt" stroke-linejoin="miter" stroke="rgb(83.499146%, 36.898804%, 0%)" stroke-opacity="1" stroke-miterlimit="10" d="M 4.195453 0.000798161 C 3.679266 0.129845 1.415081 0.853289 -0.000522912 1.643212 L -0.000522912 -1.645526 C 1.415081 -0.855603 3.679266 -0.128249 4.195453 0.000798161 Z M 4.195453 0.000798161 " transform="matrix(0, 0.998911, 0.998911, 0, 361.956234, 51.859897)"/>
<path fill="none" stroke-width="0.79701" stroke-linecap="butt" stroke-linejoin="miter" stroke="rgb(0%, 0%, 0%)" stroke-opacity="1" stroke-miterlimit="10" d="M 316.770818 -14.373598 L 316.770818 -34.047369 " transform="matrix(0.998911, 0, 0, -0.998911, 45.531211, 72.048306)"/>
<path fill-rule="nonzero" fill="rgb(0%, 0%, 0%)" fill-opacity="1" stroke-width="0.79701" stroke-linecap="butt" stroke-linejoin="miter" stroke="rgb(0%, 0%, 0%)" stroke-opacity="1" stroke-miterlimit="10" d="M 4.196345 0.000798161 C 3.680158 0.129845 1.415973 0.853289 0.000369049 1.643212 L 0.000369049 -1.645526 C 1.415973 -0.855603 3.680158 -0.128249 4.196345 0.000798161 Z M 4.196345 0.000798161 " transform="matrix(0, 0.998911, 0.998911, 0, 361.956234, 106.058225)"/>
<path fill="none" stroke-width="0.79701" stroke-linecap="butt" stroke-linejoin="miter" stroke="rgb(0%, 0%, 0%)" stroke-opacity="1" stroke-miterlimit="10" d="M 275.315513 -54.256879 L 258.476861 -54.256879 " transform="matrix(0.998911, 0, 0, -0.998911, 45.531211, 72.048306)"/>
<path fill-rule="nonzero" fill="rgb(0%, 0%, 0%)" fill-opacity="1" stroke-width="0.79701" stroke-linecap="butt" stroke-linejoin="miter" stroke="rgb(0%, 0%, 0%)" stroke-opacity="1" stroke-miterlimit="10" d="M 4.194135 -0.000540593 C 3.677948 0.128506 1.413763 0.855861 -0.00184094 1.645784 L -0.00184094 -1.642954 C 1.413763 -0.853032 3.677948 -0.129587 4.194135 -0.000540593 Z M 4.194135 -0.000540593 " transform="matrix(-0.998911, 0, 0, 0.998911, 303.724724, 126.246634)"/>
<path fill="none" stroke-width="0.79701" stroke-linecap="butt" stroke-linejoin="miter" stroke="rgb(0%, 0%, 0%)" stroke-opacity="1" stroke-miterlimit="10" d="M 210.686531 -54.256879 L 159.834272 -54.256879 " transform="matrix(0.998911, 0, 0, -0.998911, 45.531211, 72.048306)"/>
<path fill-rule="nonzero" fill="rgb(0%, 0%, 0%)" fill-opacity="1" stroke-width="0.79701" stroke-linecap="butt" stroke-linejoin="miter" stroke="rgb(0%, 0%, 0%)" stroke-opacity="1" stroke-miterlimit="10" d="M 4.194344 -0.000540593 C 3.678157 0.128506 1.413972 0.855861 -0.00163217 1.645784 L -0.00163217 -1.642954 C 1.413972 -0.853032 3.678157 -0.129587 4.194344 -0.000540593 Z M 4.194344 -0.000540593 " transform="matrix(-0.998911, 0, 0, 0.998911, 205.189776, 126.246634)"/>
<g fill="rgb(0%, 0%, 0%)" fill-opacity="1">
<use xlink:href="#glyph-0-15" x="215.572246" y="120.808013"/>
<use xlink:href="#glyph-0-4" x="219.552962" y="120.808013"/>
<use xlink:href="#glyph-0-0" x="223.087837" y="120.808013"/>
</g>
<path fill="none" stroke-width="0.79701" stroke-linecap="butt" stroke-linejoin="miter" stroke="rgb(0%, 0%, 0%)" stroke-opacity="1" stroke-miterlimit="10" d="M 231.662501 -63.900195 L 231.662501 -77.903727 " transform="matrix(0.998911, 0, 0, -0.998911, 45.531211, 72.048306)"/>
<path fill-rule="nonzero" fill="rgb(0%, 0%, 0%)" fill-opacity="1" stroke-width="0.79701" stroke-linecap="butt" stroke-linejoin="miter" stroke="rgb(0%, 0%, 0%)" stroke-opacity="1" stroke-miterlimit="10" d="M 4.195043 0.000100934 C 3.678856 0.129148 1.414671 0.852592 -0.000932851 1.646425 L -0.000932851 -1.646223 C 1.414671 -0.856301 3.678856 -0.128946 4.195043 0.000100934 Z M 4.195043 0.000100934 " transform="matrix(0, 0.998911, 0.998911, 0, 276.941305, 149.868119)"/>
<g fill="rgb(0%, 0%, 0%)" fill-opacity="1">
<use xlink:href="#glyph-0-16" x="280.656325" y="147.5743"/>
<use xlink:href="#glyph-0-8" x="284.637041" y="147.5743"/>
</g>
<path fill="none" stroke-width="0.79701" stroke-linecap="butt" stroke-linejoin="miter" stroke="rgb(83.499146%, 36.898804%, 0%)" stroke-opacity="1" stroke-dasharray="2.98883 2.98883" stroke-miterlimit="10" d="M 275.315513 48.589507 L 99.921364 48.589507 L 99.921364 20.210943 " transform="matrix(0.998911, 0, 0, -0.998911, 45.531211, 72.048306)"/>
<path fill-rule="nonzero" fill="rgb(83.499146%, 36.898804%, 0%)" fill-opacity="1" stroke-width="0.79701" stroke-linecap="butt" stroke-linejoin="miter" stroke="rgb(83.499146%, 36.898804%, 0%)" stroke-opacity="1" stroke-miterlimit="10" d="M 4.195453 0.000724238 C 3.679266 0.129771 1.415081 0.853215 -0.000522912 1.643138 L -0.000522912 -1.6456 C 1.415081 -0.855677 3.679266 -0.128323 4.195453 0.000724238 Z M 4.195453 0.000724238 " transform="matrix(0, 0.998911, 0.998911, 0, 145.343027, 51.859897)"/>
<g fill="rgb(83.499146%, 36.898804%, 0%)" fill-opacity="1">
<use xlink:href="#glyph-0-7" x="147.827668" y="19.718611"/>
<use xlink:href="#glyph-0-4" x="150.040946" y="19.718611"/>
<use xlink:href="#glyph-0-2" x="153.575821" y="19.718611"/>
<use xlink:href="#glyph-0-3" x="157.110697" y="19.718611"/>
<use xlink:href="#glyph-0-16" x="159.761854" y="19.718611"/>
<use xlink:href="#glyph-0-0" x="163.742569" y="19.718611"/>
</g>
<g fill="rgb(83.499146%, 36.898804%, 0%)" fill-opacity="1">
<use xlink:href="#glyph-14-0" x="168.829659" y="19.718611"/>
</g>
<g fill="rgb(83.499146%, 36.898804%, 0%)" fill-opacity="1">
<use xlink:href="#glyph-0-17" x="176.265622" y="19.718611"/>
<use xlink:href="#glyph-0-18" x="178.4789" y="19.718611"/>
</g>
<g fill="rgb(83.499146%, 36.898804%, 0%)" fill-opacity="1">
<use xlink:href="#glyph-0-19" x="183.120414" y="19.718611"/>
<use xlink:href="#glyph-0-20" x="187.54697" y="19.718611"/>
</g>
<g fill="rgb(83.499146%, 36.898804%, 0%)" fill-opacity="1">
<use xlink:href="#glyph-0-4" x="191.416226" y="19.718611"/>
<use xlink:href="#glyph-0-5" x="194.951102" y="19.718611"/>
</g>
</svg>
